<svg xmlns="http://www.w3.org/2000/svg" width="46" height="45" viewBox="0 0 46 45" fill="none"><circle cx="23" cy="22.5" r="22.5" fill="#D17846"></circle><path d="M34.326 11.6697C32.5919 9.93437 27.9541 11.6287 23.0019 15.4955C18.0477 11.6285 13.41 9.93501 11.6767 11.6697C9.94117 13.4051 11.6357 18.0416 15.501 22.9949C11.6365 27.9483 9.94106 32.5857 11.6767 34.3201C13.4108 36.0552 18.0497 34.3603 23.0019 30.4943C27.954 34.3603 32.5922 36.0553 34.326 34.3201C36.062 32.5847 34.3664 27.9471 30.5005 22.9949C34.3672 18.0417 36.062 13.4041 34.326 11.6697ZM32.37 12.9891C32.7368 12.9891 32.8919 13.0653 32.9114 13.0847C33.0123 13.1852 33.273 14.3208 32.0192 16.9327C31.339 18.3497 30.3766 19.8691 29.2042 21.4083C28.5129 20.6088 27.7707 19.8095 26.9789 19.0181C26.1884 18.2288 25.3889 17.4862 24.5908 16.7953C27.8867 14.2885 30.7832 12.989 32.3701 12.989L32.37 12.9891ZM27.9248 22.9942C27.1918 23.8547 26.4061 24.7149 25.5631 25.558C24.7032 26.419 23.8451 27.2025 23.0027 27.9178C22.1418 27.1861 21.282 26.4004 20.4395 25.558C19.5785 24.6975 18.7942 23.8392 18.0786 22.9974C18.8103 22.1354 19.5952 21.2767 20.4374 20.434C21.2994 19.5732 22.1573 18.7878 22.9998 18.0723C23.8617 18.8053 24.7219 19.591 25.5638 20.4332C26.425 21.2941 27.2097 22.151 27.9249 22.9943L27.9248 22.9942ZM12.9959 13.6258C12.9959 13.2605 13.0721 13.1041 13.0913 13.0846C13.191 12.9849 14.3268 12.723 16.9393 13.9777C18.3562 14.6579 19.8747 15.6203 21.4149 16.7916C20.6154 17.4833 19.8144 18.226 19.0228 19.0175C18.2331 19.808 17.4905 20.6076 16.8009 21.406C14.2956 18.1087 12.9959 15.2126 12.9959 13.6256L12.9959 13.6258ZM13.6327 33.0009C13.2664 33.0009 13.1102 32.9239 13.0913 32.9055C12.9908 32.8046 12.7298 31.6692 13.9844 29.0571C14.6646 27.6403 15.6262 26.1209 16.7984 24.5819C17.4901 25.3812 18.2327 26.1816 19.0242 26.9729C19.8139 27.7639 20.6131 28.5052 21.4128 29.196C18.1158 31.7012 15.2199 33.0009 13.6329 33.0009L13.6327 33.0009ZM33.0074 32.3636C33.0074 32.7296 32.9303 32.8856 32.9117 32.9042C32.8112 33.0051 31.6757 33.2668 29.0637 32.0119C27.6481 31.3318 26.1283 30.3694 24.5894 29.197C25.3877 28.5057 26.1882 27.7635 26.9783 26.9728C27.7693 26.1822 28.5114 25.3829 29.2025 24.5838C31.7079 27.8808 33.0073 30.7757 33.0073 32.3637L33.0074 32.3636Z" fill="white" stroke="#D17846" stroke-width="0.8"></path></svg>