<svg id="Layer_1" data-name="Layer 1" xmlns="http://www.w3.org/2000/svg" xmlns:xlink="http://www.w3.org/1999/xlink" viewBox="0 0 453.25 105.16"><defs><style>.cls-1{fill:none;}.cls-2{clip-path:url(#clip-path);}</style><clipPath id="clip-path" transform="translate(-73.21 -41.6)"><rect class="cls-1" width="599.67" height="220"/></clipPath></defs><title>untitled_logo</title><rect x="182.72" width="20.47" height="20.47"/><g class="cls-2"><path d="M329,139.83c-4.85,0-8.17-3.73-8.17-9.68V81.73H343V76.19H320.85V52.67h-2.77C315.31,67.06,308.12,74.81,296,79v2.77H308.4v48.42c0,10.24,6.91,16.61,17.85,16.61,14.53,0,20.89-11.35,20.89-31.83l-4.71-.28c-.14,17.58-6.08,25.18-13.41,25.18" transform="translate(-73.21 -41.6)"/><path d="M358.86,145.37h12.45V50.55a53.55,53.55,0,0,1-12.45,4.24Z" transform="translate(-73.21 -41.6)"/><path d="M419.68,79.09c9.55,0,15.77,7.34,15.77,20.62l-2.76,2.77H400c1.94-15.36,9.82-23.39,19.65-23.39m1.52,60.74c-12.87,0-21.86-12-21.86-29.05a21.35,21.35,0,0,1,.14-2.77h45.66l4.15-4.15c0-18.81-11.62-30.44-30-30.44-20.34,0-33.62,14.39-33.62,37.78,0,21.44,12.6,35.56,32.1,35.56,18.54,0,29.61-12.6,32.93-31.83l-4.84-1c-3,14.53-12.17,25.87-24.63,25.87" transform="translate(-73.21 -41.6)"/><path d="M514,116.32c0,14.52-7.74,23.51-19.92,23.51-13.7,0-21.58-10.51-21.58-29.74,0-18.82,8.44-29.75,22.13-29.75,11.63,0,19.37,8.44,19.37,22.14Zm0-63.89V81.31h-1.38c-4.7-5-12.45-7.89-20.75-7.89-19.23,0-33.21,15.36-33.21,36.67s13.56,36.67,33.21,36.67c10,0,18.12-4.16,22.13-11.07h1.39v9.68h11.07V48.67A49.2,49.2,0,0,1,514,52.43" transform="translate(-73.21 -41.6)"/><path d="M161.38,139.83a10.27,10.27,0,0,1-9.86-7.37l-8.71-29.52c4.54-15.92,13.92-21.22,23-21.22,9.83,0,15.22,6.78,15.22,19.38v36l-2.76,2.75Zm-49.44-1.37c-9.82,0-15.21-6.79-15.21-19.38V81.72h19.68a10.29,10.29,0,0,1,9.86,7.37l8.49,28.76c-4.94,16.33-15,20.61-22.82,20.61m81.58-1.39V98.33h0c0-16.19-8.3-24.91-23.52-24.91-16.95,0-25.25,10.9-29.5,21.68h-1.39l-.44-2a21.61,21.61,0,0,0-21.09-16.92H73.21v5.53h8.3l2.76,2.77v37.36c0,16.19,8.3,24.91,23.53,24.91,16.62,0,24.94-10.52,29.26-21.12h1.38l.44,2a22.75,22.75,0,0,0,22.19,17.74h43.52v-5.54h-8.3Z" transform="translate(-73.21 -41.6)"/><path d="M287.58,132.47l-11.52-39A24,24,0,0,0,253,76.19H227.42V52.67h-2.76c-2.77,14.39-10,22.14-22.14,26.29v2.77H215v48.42c0,10.24,6.92,16.61,17.85,16.61,14.53,0,20.89-11.35,20.89-31.83l-4.7-.28c-.14,17.58-6.09,25.18-13.43,25.18-4.84,0-8.16-3.73-8.16-9.68V81.73h24.07a10.27,10.27,0,0,1,9.86,7.36l11.52,39a24,24,0,0,0,23.06,17.24h8.59v-5.54h-7.09a10.27,10.27,0,0,1-9.85-7.36" transform="translate(-73.21 -41.6)"/></g></svg>