<?xml version="1.0" encoding="utf-8"?>
<!-- Generator: Adobe Illustrator 15.1.0, SVG Export Plug-In  -->
<!DOCTYPE svg PUBLIC "-//W3C//DTD SVG 1.1//EN" "http://www.w3.org/Graphics/SVG/1.1/DTD/svg11.dtd" [
	<!ENTITY ns_flows "http://ns.adobe.com/Flows/1.0/">
]>
<svg version="1.1"
	 xmlns="http://www.w3.org/2000/svg" xmlns:xlink="http://www.w3.org/1999/xlink" xmlns:a="http://ns.adobe.com/AdobeSVGViewerExtensions/3.0/"
	 x="0px" y="0px" width="320px" height="320px" viewBox="0 0 320 320" overflow="visible" enable-background="new 0 0 320 320"
	 xml:space="preserve">
<defs>
</defs>
<circle fill="#FFFFFF" cx="160" cy="160" r="160"/>
<path fill="none" stroke="#2E0073" d="M290.744,243.359C231.621,256.442,173.085,219.123,160,160"/>
<path fill="none" stroke="#2E0073" d="M314.904,166.82C270.246,207.712,200.893,204.66,160,160"/>
<path fill="none" stroke="#2E0073" d="M297.562,88.454C279.332,146.196,217.744,178.23,160,160"/>
<path fill="none" stroke="#2E0073" d="M243.357,29.259C256.442,88.379,219.123,146.916,160,160"/>
<path fill="none" stroke="#2E0073" d="M166.82,5.096C207.712,49.753,204.658,119.108,160,160"/>
<path fill="none" stroke="#2E0073" d="M88.453,22.439C146.196,40.668,178.229,102.258,160,160"/>
<path fill="none" stroke="#2E0073" d="M29.259,76.643C88.379,63.558,146.915,100.88,160,160"/>
<path fill="none" stroke="#2E0073" d="M5.096,153.181C49.754,112.289,119.108,115.342,160,160"/>
<path fill="none" stroke="#2E0073" d="M22.439,231.549C40.668,173.802,102.258,141.771,160,160"/>
<path fill="none" stroke="#2E0073" d="M76.644,290.744C63.558,231.62,100.879,173.084,160,160"/>
<path fill="none" stroke="#2E0073" d="M153.182,314.904C112.289,270.247,115.341,200.892,160,160"/>
<path fill="none" stroke="#2E0073" d="M231.545,297.562C173.803,279.333,141.77,217.744,160,160"/>
<radialGradient id="SVGID_1_" cx="163.1035" cy="161.8848" r="169.0088" gradientTransform="matrix(0.9467 0 0 0.9467 5.5903 6.7441)" gradientUnits="userSpaceOnUse">
	<stop  offset="0.3006" style="stop-color:#FFFFFF;stop-opacity:0.11"/>
	<stop  offset="0.5276" style="stop-color:#FFFFFF;stop-opacity:0.8"/>
	<stop  offset="0.7362" style="stop-color:#FFFA73"/>
	<stop  offset="0.9939" style="stop-color:#FFFFFF"/>
</radialGradient>
<circle fill="url(#SVGID_1_)" cx="160" cy="160" r="160"/>
<path fill="none" stroke="#2E0073" stroke-width="3.6641" d="M160.045,83.027c28.123,0,124.541-16.323,133.93,0
	c9.389,16.323-53.508,92.998-66.966,116.36s-45.626,117.948-66.964,116.359c-21.339-1.59-52.064-89.448-66.965-116.359
	s-76.729-94.161-66.966-116.36C35.876,60.828,131.92,83.027,160.045,83.027z"/>
<path fill="none" stroke="#2E0073" stroke-width="3.6641" d="M159.955,236.973c-28.124,0-124.541,16.323-133.93,0
	s53.508-92.997,66.966-116.36C106.449,97.25,138.617,2.665,159.955,4.254c21.339,1.589,52.063,89.448,66.965,116.359
	c14.9,26.912,76.729,94.162,66.966,116.36C284.124,259.173,188.08,236.973,159.955,236.973z"/>
<path fill="none" stroke="#2E0073" stroke-width="3.6641" d="M83.772,160.231c0-28.215-16.271-124.941,0-134.36
	c16.271-9.419,92.7,53.68,115.987,67.181c23.289,13.501,117.571,45.772,115.988,67.18c-1.585,21.406-89.162,52.229-115.988,67.179
	c-26.824,14.948-93.859,76.975-115.987,67.181C61.644,284.797,83.772,188.445,83.772,160.231z"/>
<path fill="none" stroke="#2E0073" stroke-width="3.6641" d="M236.229,160.319c0,28.215,16.271,124.941,0,134.36
	c-16.271,9.419-92.7-53.68-115.988-67.181S2.669,181.726,4.254,160.319c1.584-21.406,89.162-52.23,115.987-67.179
	c26.825-14.949,93.861-76.974,115.988-67.181C258.358,35.753,236.229,132.105,236.229,160.319z"/>
<path fill="none" stroke="#2E0073" stroke-width="6" stroke-linejoin="round" d="M160,180.334
	c-10.568-0.242-56.135,12.075-56.135,12.075s32.24-32.606,38.128-42.806C147.882,139.405,160,95.181,160,95.181
	c12.532,43.976,13.716,46.986,17.733,54.579c4.499,8.502,38.4,42.649,38.4,42.649S170.568,180.576,160,180.334z"/>
</svg>
