<?xml version="1.0" encoding="utf-8"?>
<!-- Generator: Adobe Illustrator 22.1.0, SVG Export Plug-In . SVG Version: 6.00 Build 0)  -->
<svg version="1.1" xmlns="http://www.w3.org/2000/svg" xmlns:xlink="http://www.w3.org/1999/xlink" x="0px" y="0px"
	 viewBox="0 0 827 273" enable-background="new 0 0 827 273" xml:space="preserve">
<g id="Layer_1">
	<path d="M28.8,201.2c1.6-0.6,3.1-1,4.8-1.2c10.8-0.7,17-2,18.6-3.9c1.6-1.9,2.3-11,2.3-27.3l-0.1-11.2v-11.7L54,133.2l0.2-7.5
		l-0.1-8.3v-9.8l-0.2-4.4l0.2-5.5c0.1-1.3,0.1-2.8,0.1-4.5c0-4.5-0.2-9.2-0.6-14.1c-0.3-1-0.7-1.9-1.2-2.9
		c-2.6-1.3-6.9-2.2-12.7-2.7c-5.8-0.5-9.2-1-9.9-1.5c-0.6-0.4-0.9-1.5-1-3.3h8.9l28.2,0.6c7.2,0,16.9-0.2,28.9-0.6
		c0,1.1-0.1,2.2-0.2,3.2c-1.4,0.4-3.8,0.7-7.1,1.2c-6.7,0.8-10.8,1.5-12.3,2.2c-0.9,0.4-1.6,1-2,1.8c-0.7,1.3-1.1,3.7-1.3,7.1
		l-0.5,13.7l0.4,47.3v18.7c-0.1,5.9-0.2,9.9-0.2,12c0,7.9,0.2,13,0.6,15.2c0.4,2.2,1.1,3.8,2,4.7c1,1,2.5,1.7,4.7,2.3
		c3.3,0.8,5.8,1.2,7.6,1.3c4,0.1,6.5,0.7,7.5,1.7c0.2,0.9,0.3,1.7,0.3,2.3v0.8c-6.5,0.2-11.2,0.3-14.3,0.3c-1.8,0-4.9-0.1-9.5-0.3
		L56,204.5l-25-0.1h-2L28.8,201.2z"/>
</g>
<g id="Layer_1_copy_2">
	<path d="M222.2,201.2c1.6-0.6,3.1-1,4.8-1.2c10.8-0.7,17-2,18.6-3.9c1.6-1.9,2.3-11,2.3-27.3l-0.1-11.2v-11.7l-0.4-12.9l0.2-7.5
		l-0.1-8.3v-9.8l-0.2-4.4l0.2-5.5c0.1-1.3,0.1-2.8,0.1-4.5c0-4.5-0.2-9.2-0.6-14.1c-0.3-1-0.7-1.9-1.2-2.9
		c-2.6-1.3-6.8-2.2-12.7-2.7c-5.8-0.5-9.2-1-9.9-1.5c-0.6-0.4-0.9-1.5-1-3.3h8.9l28.2,0.6c7.2,0,16.9-0.2,28.9-0.6
		c0,1.1-0.1,2.2-0.2,3.2c-1.4,0.4-3.8,0.7-7.1,1.2c-6.7,0.8-10.8,1.5-12.3,2.2c-0.9,0.4-1.6,1-2,1.8c-0.7,1.3-1.1,3.7-1.3,7.1
		l-0.5,13.7l0.4,47.3v18.7c-0.1,5.9-0.2,9.9-0.2,12c0,7.9,0.2,13,0.6,15.2c0.4,2.2,1.1,3.8,2,4.7c1,1,2.5,1.7,4.7,2.3
		c3.3,0.8,5.8,1.2,7.6,1.3c4,0.1,6.5,0.7,7.5,1.7c0.2,0.9,0.3,1.7,0.3,2.3v0.8c-6.5,0.2-11.2,0.3-14.3,0.3c-1.8,0-4.9-0.1-9.5-0.3
		l-14.7,0.2l-25-0.1h-2L222.2,201.2z"/>
</g>
<g id="Layer_1_copy">
	<path d="M103.5,40.5v-4.1c1.2-0.4,2.1-0.6,2.8-0.7l9.7-0.7c8-0.9,17.1-1.7,27-2.2c4-0.2,10.3-0.3,18.9-0.3
		c11.7,0,20.3,1.1,25.7,3.3c7.9,3.3,13.8,8.2,17.7,14.7c3.9,6.6,5.8,13.9,5.8,21.9c0,13-7.3,24-21.8,32.9l-0.5,1
		c7.4,2.6,13.5,6.1,18.3,10.7s8.4,10.2,10.9,16.8c1.9,4.8,2.8,11.2,2.8,19c0,13.1-4.7,24.8-14,35.1c-9.3,10.3-22.2,15.4-38.5,15.4
		H153l-15.6,0.7c-13.8,0.2-21.8,0.3-24.1,0.3c-2.4,0-4.8-0.1-7.1-0.4v-1.5c0-1.1,0.2-1.8,0.5-2.3c0.4-0.5,1.2-1,2.4-1.4
		c8.6-2.3,13.5-3.8,14.6-4.7c1.1-0.8,1.9-2.2,2.3-4c0.8-3.5,1.2-12.6,1.2-27.2c0-1.3,0-3-0.1-5c-0.1-5.9-0.2-9.3-0.2-10.2V134
		c0-23.2-0.2-43.5-0.6-60.8l-0.1-26.5l-0.1-3.3c-5.8-1.1-11-1.7-15.5-2C107.7,41.3,105.3,41,103.5,40.5z M144.4,107.2
		c3.4,0.9,7.1,1.3,10.9,1.3c14.9,0,25-4.2,30.3-12.6c5.3-8.4,8-16.7,8-25c0-3.7-0.5-7.5-1.4-11.3c-0.9-3.8-2.6-7.3-5-10.4
		c-2.4-3.1-5.3-5.4-8.8-6.9c-6-2.6-12.1-3.8-18.4-3.8c-5.9,0-11.3,0.8-16.3,2.5c-0.1,1.8-0.1,3.2-0.1,4.1c0,0.9,0.1,3.4,0.2,7.5
		c0.1,2.6,0.1,5.3,0.1,7.9l-0.3,16l0.1,9.5l0.7,18.6L144.4,107.2z M168.7,197.1c6.8-0.6,12.5-2.5,17.2-5.5c2.1-1.4,4.7-3.9,7.6-7.6
		c2.9-3.7,5.2-8,6.8-13.1c1.6-5.1,2.4-10,2.4-14.8c0-3.6-0.6-8.1-1.7-13.3c-1.1-5.3-3.1-9.9-5.8-13.9c-2.7-4-6.8-7.3-12.1-9.9
		c-5.4-2.6-11.3-3.9-17.8-3.9c-12.5,0-19.6,0.3-21.1,0.9c-0.1,2-0.1,3.5-0.1,4.5l0.1,4.9l-0.1,9.9v11.2c0.2,20.7,0.6,32.9,1.1,36.7
		c0.6,3.8,2.4,7,5.6,9.8C154.1,195.6,160,197,168.7,197.1z"/>
</g>
<g id="Layer_5">
	<line stroke="#000000" stroke-width="7" stroke-miterlimit="10" x1="27.8" y1="238.7" x2="287.6" y2="238.7"/>
</g>
<g id="Layer_7">
	<path d="M337,107.9h-7.9v-5.3h21.6v5.3h-7.9v20.8H337V107.9z"/>
	<path d="M357.9,102.6h5.7v10.3h10.6v-10.3h5.7v26h-5.7v-10.5h-10.6v10.5h-5.7V102.6z"/>
	<path d="M388.9,102.6h19.6v5.1h-14v5.3h12.3v5.1h-12.3v5.5h14.1v5.1h-19.8V102.6z"/>
	<path d="M430.9,102.6h5.7v26h-5.7V102.6z"/>
	<path d="M445.9,102.6h5.3l12.2,16v-16h5.7v26h-4.9l-12.6-16.6v16.6h-5.7V102.6z"/>
	<path d="M484.1,107.9h-7.9v-5.3h21.6v5.3h-7.9v20.8h-5.7V107.9z"/>
	<path d="M505,102.6h19.6v5.1h-14v5.3h12.3v5.1h-12.3v5.5h14.1v5.1H505V102.6z"/>
	<path d="M532.7,102.6h11.9c3.3,0,5.9,0.9,7.6,2.6c1.5,1.5,2.2,3.5,2.2,6v0.1c0,4.2-2.3,6.8-5.6,8.1l6.4,9.3h-6.7l-5.6-8.3h-0.1
		h-4.4v8.3h-5.7V102.6z M544.2,115.3c2.8,0,4.4-1.5,4.4-3.7v-0.1c0-2.5-1.7-3.7-4.5-3.7h-5.7v7.5H544.2z"/>
	<path d="M562.4,102.6h5.3l12.2,16v-16h5.7v26h-4.9L568,112.1v16.6h-5.7V102.6z"/>
	<path d="M603.5,102.4h5.3l11.2,26.2h-6l-2.4-5.8h-11l-2.4,5.8h-5.8L603.5,102.4z M609.5,117.8l-3.5-8.4l-3.5,8.4H609.5z"/>
	<path d="M629.4,107.9h-7.9v-5.3h21.6v5.3h-7.9v20.8h-5.7V107.9z"/>
	<path d="M650.5,102.6h5.7v26h-5.7V102.6z"/>
	<path d="M664.4,115.7L664.4,115.7c0-7.5,5.8-13.5,13.9-13.5s13.8,6,13.8,13.4v0.1c0,7.4-5.8,13.5-13.9,13.5
		C670.2,129.1,664.4,123.1,664.4,115.7z M686.1,115.7L686.1,115.7c0-4.5-3.3-8.3-7.9-8.3c-4.6,0-7.8,3.6-7.8,8.1v0.1
		c0,4.5,3.3,8.2,7.9,8.2S686.1,120.2,686.1,115.7z"/>
	<path d="M700,102.6h5.3l12.2,16v-16h5.7v26h-4.9l-12.6-16.6v16.6H700V102.6z"/>
	<path d="M741.1,102.4h5.3l11.2,26.2h-6l-2.4-5.8h-11l-2.4,5.8h-5.8L741.1,102.4z M747.1,117.8l-3.5-8.4l-3.5,8.4H747.1z"/>
	<path d="M764.3,102.6h5.7v20.8h13v5.2h-18.7V102.6z"/>
	<path d="M336.4,147.3h12.1c3,0,5.3,0.8,6.8,2.3c1.2,1.2,1.8,2.6,1.8,4.4v0.1c0,2.9-1.6,4.6-3.4,5.6c3,1.2,4.9,2.9,4.9,6.4v0.1
		c0,4.8-3.9,7.1-9.7,7.1h-12.4V147.3z M347.2,157.8c2.5,0,4.1-0.8,4.1-2.8V155c0-1.7-1.3-2.7-3.8-2.7H342v5.5H347.2z M348.8,168.3
		c2.5,0,4.1-0.9,4.1-2.8v-0.1c0-1.7-1.3-2.8-4.2-2.8H342v5.7H348.8z"/>
	<path d="M375,147.1h5.3l11.2,26.2h-6l-2.4-5.8h-11l-2.4,5.8h-5.8L375,147.1z M381,162.4l-3.5-8.4l-3.5,8.4H381z"/>
	<path d="M400.9,152.5H393v-5.3h21.6v5.3h-7.9v20.8h-5.7V152.5z"/>
	<path d="M421.8,147.3h19.6v5.1h-14v5.3h12.3v5.1h-12.3v5.5h14.1v5.1h-19.8V147.3z"/>
	<path d="M447.7,169.5l3.4-4.1c2.3,1.9,4.8,3.2,7.8,3.2c2.3,0,3.8-0.9,3.8-2.5v-0.1c0-1.5-0.9-2.2-5.2-3.3c-5.2-1.3-8.6-2.8-8.6-8
		v-0.1c0-4.7,3.8-7.8,9.1-7.8c3.8,0,7,1.2,9.7,3.3l-3,4.3c-2.3-1.6-4.6-2.6-6.8-2.6c-2.2,0-3.3,1-3.3,2.3v0.1c0,1.7,1.1,2.3,5.6,3.4
		c5.3,1.4,8.3,3.3,8.3,7.8v0.1c0,5.2-3.9,8.1-9.6,8.1C454.8,173.7,450.8,172.3,447.7,169.5z"/>
	<path d="M474.9,160.4L474.9,160.4c0-7.5,5.8-13.5,13.9-13.5s13.8,6,13.8,13.4v0.1c0,7.4-5.8,13.5-13.9,13.5
		S474.9,167.8,474.9,160.4z M496.6,160.4L496.6,160.4c0-4.5-3.3-8.3-7.9-8.3c-4.6,0-7.8,3.6-7.8,8.1v0.1c0,4.5,3.3,8.2,7.9,8.2
		S496.6,164.8,496.6,160.4z"/>
	<path d="M510.5,147.3h5.3l12.2,16v-16h5.7v26h-4.9l-12.6-16.6v16.6h-5.7V147.3z"/>
	<path d="M556.9,147.3h5.7v26h-5.7V147.3z"/>
	<path d="M571.9,147.3h5.3l12.2,16v-16h5.7v26h-4.9l-12.6-16.6v16.6h-5.7V147.3z"/>
	<path d="M602.3,169.5l3.4-4.1c2.3,1.9,4.8,3.2,7.8,3.2c2.3,0,3.8-0.9,3.8-2.5v-0.1c0-1.5-0.9-2.2-5.2-3.3c-5.2-1.3-8.6-2.8-8.6-8
		v-0.1c0-4.7,3.8-7.8,9.1-7.8c3.8,0,7,1.2,9.7,3.3l-3,4.3c-2.3-1.6-4.6-2.6-6.8-2.6c-2.2,0-3.3,1-3.3,2.3v0.1c0,1.7,1.1,2.3,5.6,3.4
		c5.3,1.4,8.3,3.3,8.3,7.8v0.1c0,5.2-3.9,8.1-9.6,8.1C609.4,173.7,605.4,172.3,602.3,169.5z"/>
	<path d="M636.2,152.5h-7.9v-5.3h21.6v5.3h-7.9v20.8h-5.7V152.5z"/>
	<path d="M657.3,147.3h5.7v26h-5.7V147.3z"/>
	<path d="M678.4,152.5h-7.9v-5.3H692v5.3h-7.9v20.8h-5.7V152.5z"/>
	<path d="M698.8,162.1v-14.9h5.7V162c0,4.2,2.1,6.4,5.6,6.4c3.5,0,5.6-2.1,5.6-6.2v-14.9h5.7V162c0,7.9-4.4,11.8-11.4,11.8
		C703.1,173.7,698.8,169.8,698.8,162.1z"/>
	<path d="M736.2,152.5h-7.9v-5.3h21.6v5.3h-7.9v20.8h-5.7V152.5z"/>
	<path d="M757,147.3h19.6v5.1h-14v5.3H775v5.1h-12.3v5.5h14.1v5.1H757V147.3z"/>
</g>
</svg>
