<?xml version="1.0" encoding="utf-8"?>
<!-- Generator: Adobe Illustrator 16.0.4, SVG Export Plug-In . SVG Version: 6.00 Build 0)  -->
<!DOCTYPE svg PUBLIC "-//W3C//DTD SVG 1.1//EN" "http://www.w3.org/Graphics/SVG/1.1/DTD/svg11.dtd">
<svg version="1.1" id="Layer_1" xmlns="http://www.w3.org/2000/svg" xmlns:xlink="http://www.w3.org/1999/xlink" x="0px" y="0px"
	 width="500px" height="165px" viewBox="0 0 500 165" enable-background="new 0 0 500 165" xml:space="preserve">
<g>
	<g>
		
			<linearGradient id="SVGID_2_" gradientUnits="userSpaceOnUse" x1="477.7324" y1="74.7812" x2="560.6016" y2="74.7812" gradientTransform="matrix(1 0 0 1 -395 0.8896)">
			<stop  offset="0" style="stop-color:#F6BD56"/>
			<stop  offset="0.0056" style="stop-color:#F6BD56"/>
			<stop  offset="0.2289" style="stop-color:#D8905B"/>
			<stop  offset="0.4632" style="stop-color:#BD6960"/>
			<stop  offset="0.6779" style="stop-color:#AA4C63"/>
			<stop  offset="0.8639" style="stop-color:#9E3A65"/>
			<stop  offset="1" style="stop-color:#9A3466"/>
		</linearGradient>
		<path id="SVGID_1_" fill="url(#SVGID_2_)" d="M82.732,80.814l6.983,1.577c0.079-0.389,0.159-0.784,0.249-1.2
			c0.159-0.738,0.885-1.207,1.625-1.047c0.747,0.162,1.209,0.891,1.047,1.629c-0.861,3.972-1.153,6.417-1.012,8.438l0.018,0.229
			c0.131,1.835,0.218,3.051,0.697,4.975c0.175,0.711,1.833,7.085,5.431,10.049c3.871,3.814,8.423,3.522,11.143,3.346
			c1.229-0.08,2.04-0.132,2.696,0.152c1.388,0.555,2.471,2.371,4,5.037c0.362,0.629,0.705,1.221,1.003,1.688l0.196,0.301
			c1.956,3.018,2.657,3.899,2.901,4.107c0.69,0.536,1.617,0.391,1.787,0.222c0.225-0.571,0.41-1.47,0.579-2.256
			c0.301-1.434,0.523-2.474,1.228-3.029c0.965-0.75,1.769-0.657,2.551-0.565l0.257,0.029c0.993,0.108,1.675,0.901,2.335,1.672
			c0.075,0.09,0.164,0.188,0.25,0.294c0.508-0.65,1.261-1.801,1.889-2.93c0.321-0.58,1.014-0.842,1.638-0.631
			c0.63,0.215,1.013,0.853,0.906,1.509c-0.093,0.604-0.162,1.242-0.198,1.8c0.839-0.618,1.71-1.188,2.671-0.993
			c0.766,0.147,1.354,0.73,2.034,1.399c0.587,0.576,1.25,1.228,1.901,1.456c0.409,0.026,2.087-0.837,2.43-1.821
			c0.313-0.898,0.583-2.393,0.868-3.972c0.465-2.581,0.996-5.513,1.992-7.421c1.613-3.086,3.87-4.864,6.071-6.33
			c3.226-2.145,8.084-3.498,8.29-3.551c0.722-0.189,1.543-0.377,2.375-0.496c2.553-5.047,6.164-15.773,2.441-31.955
			c-5.333-23.201-20.178-31.357-20.762-31.654L82.732,80.814z"/>
	</g>
	<g>
		<g>
			<defs>
				<path id="SVGID_3_" d="M82.732,80.814l6.983,1.577c0.079-0.389,0.159-0.784,0.249-1.2c0.159-0.738,0.885-1.207,1.625-1.047
					c0.747,0.162,1.209,0.891,1.047,1.629c-0.861,3.972-1.153,6.417-1.012,8.438l0.018,0.229c0.131,1.835,0.218,3.051,0.697,4.975
					c0.175,0.711,1.833,7.085,5.431,10.049c3.871,3.814,8.423,3.522,11.143,3.346c1.229-0.08,2.04-0.132,2.696,0.152
					c1.388,0.555,2.471,2.371,4,5.037c0.362,0.629,0.705,1.221,1.003,1.688l0.196,0.301c1.956,3.018,2.657,3.899,2.901,4.107
					c0.69,0.536,1.617,0.391,1.787,0.222c0.225-0.571,0.41-1.47,0.579-2.256c0.301-1.434,0.523-2.474,1.228-3.029
					c0.965-0.75,1.769-0.657,2.551-0.565l0.257,0.029c0.993,0.108,1.675,0.901,2.335,1.672c0.075,0.09,0.164,0.188,0.25,0.294
					c0.508-0.65,1.261-1.801,1.889-2.93c0.321-0.58,1.014-0.842,1.638-0.631c0.63,0.215,1.013,0.853,0.906,1.509
					c-0.093,0.604-0.162,1.242-0.198,1.8c0.839-0.618,1.71-1.188,2.671-0.993c0.766,0.147,1.354,0.73,2.034,1.399
					c0.587,0.576,1.25,1.228,1.901,1.456c0.409,0.026,2.087-0.837,2.43-1.821c0.313-0.898,0.583-2.393,0.868-3.972
					c0.465-2.581,0.996-5.513,1.992-7.421c1.613-3.086,3.87-4.864,6.071-6.33c3.226-2.145,8.084-3.498,8.29-3.551
					c0.722-0.189,1.543-0.377,2.375-0.496c2.553-5.047,6.164-15.773,2.441-31.955c-5.333-23.201-20.178-31.357-20.762-31.654
					L82.732,80.814z"/>
			</defs>
			<clipPath id="SVGID_4_">
				<use xlink:href="#SVGID_3_"  overflow="visible"/>
			</clipPath>
			
				<linearGradient id="SVGID_5_" gradientUnits="userSpaceOnUse" x1="460.4697" y1="74.8628" x2="579.9902" y2="74.8628" gradientTransform="matrix(1 0 0 1 -395 0.8896)">
				<stop  offset="0" style="stop-color:#F6BD56"/>
				<stop  offset="0.0056" style="stop-color:#F6BD56"/>
				<stop  offset="0.0078" style="stop-color:#F6BD56"/>
				<stop  offset="0.2512" style="stop-color:#D88A55"/>
				<stop  offset="0.4801" style="stop-color:#C06255"/>
				<stop  offset="0.688" style="stop-color:#AF4554"/>
				<stop  offset="0.8682" style="stop-color:#A53354"/>
				<stop  offset="1" style="stop-color:#A12D54"/>
			</linearGradient>
			<polygon clip-path="url(#SVGID_4_)" fill="url(#SVGID_5_)" points="65.47,117.181 86.001,14.527 184.991,34.326 164.459,136.978 
							"/>
		</g>
	</g>
</g>
<g>
	<g>
		<g>
			<defs>
				<path id="SVGID_6_" d="M81.403,2.404l1.32,78.449l5.585-4.478c-0.253-0.304-0.514-0.613-0.781-0.942
					c-0.477-0.583-0.391-1.443,0.194-1.925c0.591-0.481,1.449-0.39,1.927,0.199c2.569,3.147,4.299,4.901,5.967,6.05l0.192,0.131
					c1.516,1.042,2.518,1.73,4.319,2.554c0.668,0.308,6.686,2.985,11.245,2.021c5.397-0.646,8.008-4.391,9.562-6.626
					c0.705-1.009,1.169-1.677,1.802-2.013c1.297-0.739,3.394-0.453,6.432,0.013c0.716,0.11,1.393,0.212,1.944,0.271l0.358,0.031
					c3.578,0.354,4.706,0.355,5.021,0.294c0.85-0.206,1.312-1.022,1.288-1.259c-0.309-0.533-0.894-1.239-1.402-1.859
					c-0.935-1.13-1.61-1.951-1.603-2.85c0.015-1.223,0.587-1.793,1.146-2.346l0.185-0.185c0.703-0.706,1.749-0.747,2.761-0.782
					c0.117-0.004,0.251-0.011,0.386-0.013c-0.19-0.804-0.622-2.108-1.112-3.303c-0.254-0.613-0.026-1.317,0.528-1.673
					c0.562-0.36,1.299-0.264,1.744,0.229c0.415,0.45,0.872,0.9,1.284,1.275c0.038-1.041,0.14-2.076,0.887-2.707
					c0.597-0.507,1.418-0.603,2.366-0.718c0.817-0.098,1.738-0.211,2.323-0.578c0.276-0.303,0.647-2.155,0.091-3.035
					c-0.508-0.807-1.506-1.948-2.565-3.156c-1.727-1.973-3.689-4.215-4.56-6.181c-1.406-3.187-1.391-6.062-1.163-8.694
					c0.335-3.859,2.305-8.501,2.391-8.695c0.303-0.683,0.669-1.441,1.093-2.166c-2.354-5.144-8.487-14.654-23.461-21.834
					c-9.383-4.5-17.652-5.787-24.038-5.787C86.836,0.119,81.738,2.251,81.403,2.404"/>
			</defs>
			<clipPath id="SVGID_7_">
				<use xlink:href="#SVGID_6_"  overflow="visible"/>
			</clipPath>
			
				<linearGradient id="SVGID_8_" gradientUnits="userSpaceOnUse" x1="344.4531" y1="508.0703" x2="345.5034" y2="508.0703" gradientTransform="matrix(-21.709 -25.7636 -25.7636 21.709 20707.2559 -2082.7197)">
				<stop  offset="0" style="stop-color:#F6BD56"/>
				<stop  offset="0.0056" style="stop-color:#F6BD56"/>
				<stop  offset="0.0078" style="stop-color:#F6BD56"/>
				<stop  offset="0.2512" style="stop-color:#D88A55"/>
				<stop  offset="0.4801" style="stop-color:#C06255"/>
				<stop  offset="0.688" style="stop-color:#AF4554"/>
				<stop  offset="0.8682" style="stop-color:#A53354"/>
				<stop  offset="1" style="stop-color:#A12D54"/>
			</linearGradient>
			<polygon clip-path="url(#SVGID_7_)" fill="url(#SVGID_8_)" points="109.021,118.203 39.366,35.54 120.3,-32.657 189.954,50.007 
							"/>
		</g>
	</g>
</g>
<g>
	<g>
		<g>
			<defs>
				<path id="SVGID_9_" d="M46.753,5.738C25.32,16.105,20.672,32.393,20.516,33.027l62.155,47.879l-0.016-7.158
					c-0.395,0.009-0.8,0.019-1.226,0.023c-0.752,0.008-1.372-0.595-1.382-1.352c-0.009-0.766,0.597-1.376,1.355-1.383
					c4.065-0.045,6.513-0.305,8.452-0.894l0.222-0.067c1.76-0.535,2.922-0.892,4.691-1.784c0.654-0.332,6.5-3.367,8.588-7.534
					c2.859-4.621,1.561-8.996,0.782-11.607c-0.348-1.18-0.582-1.957-0.452-2.662c0.231-1.477,1.762-2.938,4.021-5.021
					c0.532-0.493,1.034-0.958,1.422-1.354l0.25-0.258c2.504-2.576,3.21-3.457,3.359-3.742c0.368-0.793,0.019-1.662-0.181-1.791
					c-0.61-0.092-1.525-0.073-2.329-0.063c-1.467,0.026-2.531,0.042-3.227-0.524c-0.947-0.772-1.038-1.576-1.12-2.357l-0.03-0.26
					c-0.112-0.989,0.507-1.832,1.112-2.647c0.069-0.091,0.146-0.202,0.228-0.31c-0.744-0.352-2.035-0.827-3.273-1.188
					c-0.638-0.184-1.047-0.8-0.981-1.457c0.071-0.663,0.604-1.178,1.269-1.219c0.611-0.044,1.248-0.12,1.797-0.209
					c-0.789-0.677-1.536-1.403-1.563-2.381c-0.023-0.782,0.414-1.484,0.916-2.296c0.431-0.7,0.916-1.492,0.994-2.178
					c-0.064-0.404-1.281-1.849-2.316-1.963c-0.946-0.105-2.461-0.037-4.064,0.038c-2.622,0.12-5.598,0.257-7.677-0.29
					c-3.368-0.886-5.606-2.689-7.523-4.511c-2.81-2.667-5.21-7.101-5.307-7.291c-0.346-0.661-0.71-1.42-1.013-2.205
					C76.351,0.488,73.408,0,69.741,0C63.814,0,55.987,1.273,46.753,5.738"/>
			</defs>
			<clipPath id="SVGID_10_">
				<use xlink:href="#SVGID_9_"  overflow="visible"/>
			</clipPath>
			
				<linearGradient id="SVGID_11_" gradientUnits="userSpaceOnUse" x1="349.8828" y1="509.7012" x2="350.9335" y2="509.7012" gradientTransform="matrix(-33.6779 0.9105 0.9105 33.6779 11431.4023 -17444.9922)">
				<stop  offset="0" style="stop-color:#F6BD56"/>
				<stop  offset="0.0056" style="stop-color:#F6BD56"/>
				<stop  offset="0.0078" style="stop-color:#F6BD56"/>
				<stop  offset="0.2512" style="stop-color:#D88A55"/>
				<stop  offset="0.4801" style="stop-color:#C06255"/>
				<stop  offset="0.688" style="stop-color:#AF4554"/>
				<stop  offset="0.8682" style="stop-color:#A53354"/>
				<stop  offset="1" style="stop-color:#A12D54"/>
			</linearGradient>
			<polygon clip-path="url(#SVGID_10_)" fill="url(#SVGID_11_)" points="115.293,80.848 20.583,83.408 18.329,0.06 113.038,-2.501 
							"/>
		</g>
	</g>
</g>
<g>
	<g>
		<g>
			<defs>
				<path id="SVGID_12_" d="M44.707,23.273c-0.675,0.674-1.565,1.901-2.506,3.202c-1.54,2.124-3.288,4.535-5.013,5.822
					c-2.792,2.08-5.598,2.704-8.217,3.069c-3.837,0.533-8.8-0.355-9.008-0.397c-0.733-0.142-1.555-0.329-2.357-0.583
					C13.119,37.826,5.21,45.923,1.544,62.117c-5.261,23.219,4.578,37.011,4.975,37.528l76.187-18.747l-5.607-4.449
					c-0.239,0.314-0.482,0.637-0.747,0.974c-0.461,0.593-1.318,0.698-1.917,0.237c-0.603-0.469-0.703-1.326-0.236-1.922
					c2.5-3.207,3.823-5.283,4.572-7.166l0.084-0.217c0.681-1.709,1.126-2.838,1.529-4.779c0.15-0.717,1.422-7.18-0.533-11.41
					c-1.832-5.118-6.062-6.83-8.589-7.848c-1.14-0.465-1.894-0.768-2.364-1.31c-1.008-1.099-1.196-3.207-1.417-6.272
					c-0.054-0.724-0.106-1.406-0.172-1.957l-0.046-0.356c-0.453-3.563-0.703-4.665-0.831-4.958
					c-0.391-0.784-1.289-1.055-1.515-0.977c-0.45,0.42-1.007,1.147-1.5,1.781c-0.896,1.163-1.547,2.004-2.422,2.197
					c-1.195,0.257-1.879-0.173-2.542-0.596l-0.222-0.139c-0.845-0.529-1.118-1.537-1.376-2.519
					c-0.028-0.112-0.067-0.242-0.099-0.373c-0.74,0.364-1.917,1.075-2.972,1.819c-0.541,0.384-1.28,0.319-1.751-0.142
					c-0.474-0.47-0.543-1.208-0.161-1.752c0.346-0.506,0.683-1.05,0.957-1.536c-1.022,0.194-2.055,0.326-2.837-0.264
					c-0.624-0.469-0.902-1.249-1.225-2.146c-0.277-0.772-0.594-1.646-1.081-2.136c-0.112-0.063-0.375-0.103-0.706-0.103
					C46.258,22.583,45.21,22.767,44.707,23.273"/>
			</defs>
			<clipPath id="SVGID_13_">
				<use xlink:href="#SVGID_12_"  overflow="visible"/>
			</clipPath>
			
				<linearGradient id="SVGID_14_" gradientUnits="userSpaceOnUse" x1="354.3135" y1="506.1514" x2="355.364" y2="506.1514" gradientTransform="matrix(-20.285 26.8991 26.8991 20.285 -6363.6465 -19769.5312)">
				<stop  offset="0" style="stop-color:#F6BD56"/>
				<stop  offset="0.0056" style="stop-color:#F6BD56"/>
				<stop  offset="0.0078" style="stop-color:#F6BD56"/>
				<stop  offset="0.2512" style="stop-color:#D88A55"/>
				<stop  offset="0.4801" style="stop-color:#C06255"/>
				<stop  offset="0.688" style="stop-color:#AF4554"/>
				<stop  offset="0.8682" style="stop-color:#A53354"/>
				<stop  offset="1" style="stop-color:#A12D54"/>
			</linearGradient>
			<polygon clip-path="url(#SVGID_13_)" fill="url(#SVGID_14_)" points="119.753,50.521 51.377,141.192 -40.763,71.71 
				27.614,-18.963 			"/>
		</g>
	</g>
</g>
<g>
	<g>
		<g>
			<defs>
				<path id="SVGID_15_" d="M30.523,62.234c0.046,0.615,0.269,1.504,0.458,2.283c0.351,1.426,0.602,2.458,0.207,3.264
					c-0.543,1.096-1.308,1.36-2.049,1.617l-0.247,0.086c-0.941,0.33-1.899-0.086-2.828-0.494c-0.107-0.047-0.23-0.099-0.353-0.156
					c-0.176,0.805-0.355,2.17-0.431,3.457c-0.036,0.662-0.547,1.199-1.202,1.281c-0.662,0.078-1.283-0.328-1.472-0.967
					c-0.177-0.584-0.394-1.188-0.604-1.707c-0.486,0.922-1.025,1.812-1.974,2.055c-0.755,0.197-1.539-0.072-2.441-0.381
					c-0.778-0.266-1.658-0.562-2.346-0.484c-0.379,0.152-1.516,1.66-1.396,2.695c0.107,0.947,0.511,2.408,0.941,3.955
					c0.701,2.528,1.495,5.399,1.426,7.548c-0.114,3.481-1.376,6.063-2.723,8.34c-1.975,3.332-5.764,6.658-5.928,6.795
					c-0.566,0.484-1.227,1.009-1.923,1.479c-0.11,5.654,1.291,16.885,11.667,29.85c14.874,18.589,31.79,19.495,32.442,19.509
					l32.844-71.256l-6.977,1.609c0.099,0.385,0.199,0.775,0.296,1.19c0.177,0.731-0.274,1.469-1.008,1.649
					c-0.744,0.178-1.476-0.277-1.65-1.017c-0.949-3.952-1.747-6.28-2.752-8.041l-0.117-0.2c-0.914-1.598-1.518-2.65-2.785-4.176
					c-0.467-0.564-4.728-5.589-9.254-6.697c-5.143-1.76-9.119,0.481-11.49,1.822c-1.073,0.602-1.78,1.004-2.496,1.031
					c-1.49,0.104-3.256-1.064-5.79-2.803c-0.599-0.41-1.165-0.793-1.636-1.086L36.624,64.1c-3.07-1.869-4.085-2.359-4.395-2.441
					c-0.121-0.026-0.241-0.039-0.358-0.039C31.169,61.621,30.591,62.043,30.523,62.234"/>
			</defs>
			<clipPath id="SVGID_16_">
				<use xlink:href="#SVGID_15_"  overflow="visible"/>
			</clipPath>
			
				<linearGradient id="SVGID_17_" gradientUnits="userSpaceOnUse" x1="354.4678" y1="500.627" x2="355.5184" y2="500.627" gradientTransform="matrix(8.3842 32.6309 32.6309 -8.3842 -19275.2773 -7307.0171)">
				<stop  offset="0" style="stop-color:#F6BD56"/>
				<stop  offset="0.0056" style="stop-color:#F6BD56"/>
				<stop  offset="0.0078" style="stop-color:#F6BD56"/>
				<stop  offset="0.2512" style="stop-color:#D88A55"/>
				<stop  offset="0.4801" style="stop-color:#C06255"/>
				<stop  offset="0.688" style="stop-color:#AF4554"/>
				<stop  offset="0.8682" style="stop-color:#A53354"/>
				<stop  offset="1" style="stop-color:#A12D54"/>
			</linearGradient>
			<polygon clip-path="url(#SVGID_16_)" fill="url(#SVGID_17_)" points="77.818,43.046 104.437,146.644 10.3,170.832 
				-16.318,67.234 			"/>
		</g>
	</g>
</g>
<g>
	<g>
		<g>
			<defs>
				<path id="SVGID_18_" d="M79.514,87.394c0.362,0.163,0.729,0.329,1.116,0.511c0.681,0.318,0.978,1.131,0.659,1.816
					c-0.322,0.692-1.135,0.981-1.82,0.657c-3.683-1.724-6-2.549-8.003-2.86l-0.229-0.034c-1.819-0.28-3.02-0.466-5.001-0.426
					c-0.734,0.015-7.318,0.213-11.006,3.06c-4.583,2.925-5.311,7.431-5.742,10.118c-0.197,1.216-0.325,2.02-0.749,2.598
					c-0.848,1.228-2.861,1.882-5.8,2.776c-0.693,0.215-1.347,0.417-1.869,0.604l-0.338,0.125c-3.375,1.233-4.391,1.721-4.648,1.912
					c-0.678,0.557-0.74,1.493-0.614,1.692c0.509,0.349,1.343,0.729,2.07,1.068c1.333,0.613,2.297,1.061,2.679,1.871
					c0.52,1.107,0.25,1.871-0.013,2.61l-0.086,0.247c-0.328,0.94-1.252,1.432-2.15,1.901c-0.104,0.053-0.22,0.119-0.341,0.178
					c0.52,0.643,1.475,1.632,2.435,2.493c0.494,0.442,0.596,1.178,0.25,1.739c-0.351,0.566-1.056,0.799-1.671,0.549
					c-0.568-0.227-1.176-0.434-1.711-0.594c0.418,0.955,0.775,1.93,0.375,2.826c-0.317,0.712-1.016,1.158-1.819,1.67
					c-0.693,0.444-1.472,0.947-1.84,1.533c-0.118,0.39,0.352,2.219,1.235,2.771c0.808,0.506,2.202,1.104,3.68,1.729
					c2.413,1.026,5.154,2.196,6.79,3.59c2.651,2.26,3.884,4.854,4.822,7.328c1.374,3.623,1.613,8.657,1.618,8.872
					c0.026,0.744,0.024,1.589-0.043,2.427c4.352,3.608,14.006,9.518,30.61,9.486c23.808-0.039,35.064-12.699,35.48-13.202
					l-21.878-43.529c-0.007-0.007-0.016-0.014-0.023-0.021c-4.096-3.364-5.933-10.104-6.255-11.424
					c-0.165-0.662-0.281-1.239-0.377-1.795l-6.701-13.335L79.514,87.394z"/>
			</defs>
			<clipPath id="SVGID_19_">
				<use xlink:href="#SVGID_18_"  overflow="visible"/>
			</clipPath>
			
				<linearGradient id="SVGID_20_" gradientUnits="userSpaceOnUse" x1="350.1924" y1="497.126" x2="351.243" y2="497.126" gradientTransform="matrix(30.7397 13.7881 13.7881 -30.7397 -17581.2656 10558.6934)">
				<stop  offset="0" style="stop-color:#F6BD56"/>
				<stop  offset="0.0056" style="stop-color:#F6BD56"/>
				<stop  offset="0.0078" style="stop-color:#F6BD56"/>
				<stop  offset="0.2512" style="stop-color:#D88A55"/>
				<stop  offset="0.4801" style="stop-color:#C06255"/>
				<stop  offset="0.688" style="stop-color:#AF4554"/>
				<stop  offset="0.8682" style="stop-color:#A53354"/>
				<stop  offset="1" style="stop-color:#A12D54"/>
			</linearGradient>
			<polygon clip-path="url(#SVGID_19_)" fill="url(#SVGID_20_)" points="47.651,49.455 148.957,94.896 103.716,195.758 
				2.409,150.315 			"/>
		</g>
	</g>
</g>
<g>
	<g>
		<g>
			<defs>
				<path id="SVGID_21_" d="M85.726,87.322c0.354-0.181,0.712-0.365,1.095-0.554c0.674-0.334,1.493-0.061,1.832,0.617
					c0.339,0.685,0.059,1.499-0.621,1.834c-3.646,1.806-5.736,3.103-7.227,4.473l-0.17,0.159c-1.354,1.245-2.247,2.069-3.451,3.644
					c-0.447,0.583-4.396,5.854-4.471,10.513c-0.568,5.407,2.499,8.784,4.333,10.798c0.827,0.911,1.375,1.513,1.563,2.204
					c0.432,1.429-0.313,3.41-1.444,6.268c-0.266,0.676-0.515,1.312-0.693,1.838l-0.114,0.342c-1.139,3.407-1.391,4.506-1.403,4.826
					c0.013,0.878,0.707,1.51,0.943,1.536c0.588-0.181,1.406-0.597,2.123-0.953c1.311-0.658,2.263-1.134,3.135-0.927
					c1.191,0.283,1.619,0.972,2.033,1.638l0.14,0.221c0.531,0.844,0.338,1.871,0.146,2.867c-0.022,0.114-0.044,0.246-0.072,0.379
					c0.826-0.006,2.194-0.137,3.465-0.352c0.655-0.107,1.293,0.268,1.52,0.889c0.221,0.629-0.037,1.322-0.617,1.647
					c-0.53,0.306-1.071,0.65-1.529,0.971c1.005,0.269,1.993,0.595,2.441,1.468c0.36,0.691,0.273,1.518,0.172,2.463
					c-0.084,0.819-0.178,1.742,0.05,2.396c0.232,0.335,1.955,1.107,2.938,0.762c0.901-0.315,2.236-1.035,3.647-1.797
					c2.31-1.247,4.933-2.659,7.042-3.071c3.417-0.664,6.218-0.009,8.736,0.799c3.688,1.184,7.775,4.137,7.945,4.266
					c0.598,0.445,1.257,0.974,1.87,1.548c5.535-1.15,16.174-5.017,26.503-18.018c13.331-16.776,12.332-31.935,11.901-35.271
					c-0.198,0.062-0.454,0.142-0.768,0.241c-1.55,0.508-4.328,1.514-6.305,2.829c-1.763,1.175-3.766,2.648-5.161,5.315
					c-0.802,1.54-1.289,4.246-1.72,6.639c-0.306,1.688-0.596,3.284-0.979,4.386c-0.369,1.06-1.281,2.089-2.509,2.818
					c-0.595,0.357-2.121,1.133-3.403,0.688c-1.241-0.431-2.166-1.351-2.919-2.089c-0.182-0.182-0.414-0.407-0.586-0.555
					c-0.243,0.145-0.578,0.396-0.806,0.562c-0.775,0.58-1.511,1.125-2.337,1.141c-0.473,0.01-0.93-0.193-1.25-0.559
					c-0.081-0.096-0.207-0.24-0.318-0.521c-0.977,1.027-1.525,0.951-1.916,0.892c-0.892-0.136-1.525-0.865-2.134-1.574
					c-0.205-0.236-0.529-0.613-0.709-0.756l-0.127-0.015c-0.148-0.018-0.32-0.039-0.426-0.046c-0.116,0.336-0.259,1.011-0.36,1.485
					c-0.19,0.903-0.403,1.93-0.749,2.768c-0.331,0.814-1.055,1.406-2.03,1.672c-1.306,0.353-2.855,0.035-3.941-0.812
					c-0.612-0.474-1.568-1.766-3.52-4.773l-0.193-0.301c-0.329-0.507-0.691-1.143-1.083-1.823c-0.663-1.159-2.047-3.569-2.691-3.875
					c-0.002-0.002-0.002-0.002-0.004-0.002c-0.135-0.022-0.862,0.022-1.445,0.065c-2.97,0.19-8.503,0.55-13.156-4.053
					c-4.096-3.364-5.933-10.104-6.255-11.423c-0.535-2.146-0.634-3.524-0.774-5.43l-0.014-0.229
					c-0.145-2.076,0.092-4.462,0.819-8.017c0-0.006,0.002-0.011,0.005-0.016l-7.115-1.496L85.726,87.322z"/>
			</defs>
			<clipPath id="SVGID_22_">
				<use xlink:href="#SVGID_21_"  overflow="visible"/>
			</clipPath>
			
				<linearGradient id="SVGID_23_" gradientUnits="userSpaceOnUse" x1="344.7021" y1="498.0547" x2="345.7526" y2="498.0547" gradientTransform="matrix(29.9472 -15.435 -15.435 -29.9472 -2558.6128 20372.2734)">
				<stop  offset="0" style="stop-color:#F6BD56"/>
				<stop  offset="0.0056" style="stop-color:#F6BD56"/>
				<stop  offset="0.0078" style="stop-color:#F6BD56"/>
				<stop  offset="0.2512" style="stop-color:#D88A55"/>
				<stop  offset="0.4801" style="stop-color:#C06255"/>
				<stop  offset="0.688" style="stop-color:#AF4554"/>
				<stop  offset="0.8682" style="stop-color:#A53354"/>
				<stop  offset="1" style="stop-color:#A12D54"/>
			</linearGradient>
			<polygon clip-path="url(#SVGID_22_)" fill="url(#SVGID_23_)" points="43.578,95.604 142.284,44.73 189.482,136.305 
				90.777,187.179 			"/>
		</g>
	</g>
</g>
<g>
	<polygon fill="#A12E54" points="79.204,71.617 73.05,78.126 74.954,87.024 82.127,90.301 90.273,87.468 92.665,79.277 
		87.261,72.324 	"/>
	<path fill="#FFFFFF" d="M89.964,81.193c-0.089,0.414-0.17,0.811-0.249,1.199c-0.727,3.556-0.964,5.939-0.819,8.019l0.014,0.229
		c0.14,1.904,0.239,3.283,0.773,5.43c0.323,1.318,2.16,8.06,6.256,11.423c4.652,4.604,10.186,4.243,13.157,4.053
		c0.582-0.041,1.309-0.089,1.444-0.064c0.002,0,0.002,0,0.004,0.001c0.645,0.306,2.029,2.717,2.693,3.876
		c0.39,0.682,0.752,1.316,1.081,1.822l0.193,0.301c1.952,3.01,2.908,4.302,3.52,4.773c1.086,0.848,2.636,1.164,3.943,0.812
		c0.973-0.266,1.696-0.856,2.028-1.672c0.346-0.838,0.559-1.862,0.75-2.768c0.1-0.476,0.244-1.149,0.359-1.486
		c0.106,0.008,0.278,0.029,0.426,0.047l0.127,0.015c0.179,0.145,0.505,0.52,0.709,0.756c0.608,0.709,1.242,1.438,2.133,1.574
		c0.391,0.061,0.938,0.138,1.916-0.891c0.111,0.28,0.239,0.426,0.318,0.521c0.32,0.364,0.777,0.567,1.25,0.559
		c0.827-0.016,1.563-0.561,2.338-1.141c0.227-0.168,0.562-0.419,0.806-0.562c0.171,0.146,0.404,0.372,0.585,0.556
		c0.753,0.736,1.679,1.656,2.92,2.087c1.282,0.444,2.807-0.33,3.403-0.688c1.227-0.73,2.14-1.761,2.508-2.818
		c0.384-1.103,0.673-2.697,0.979-4.386c0.432-2.393,0.919-5.1,1.721-6.64c1.395-2.667,3.398-4.145,5.162-5.315
		c1.977-1.315,4.753-2.32,6.303-2.829c0.384-0.122,0.707-0.224,0.903-0.283c0.266-0.348,1.039-1.423,1.945-3.218
		c-0.832,0.12-1.655,0.307-2.375,0.496c-0.206,0.054-5.063,1.406-8.29,3.552c-2.201,1.465-4.458,3.244-6.071,6.329
		c-0.996,1.908-1.525,4.84-1.992,7.421c-0.285,1.579-0.554,3.072-0.868,3.972c-0.342,0.982-2.021,1.851-2.43,1.822
		c-0.651-0.229-1.314-0.881-1.901-1.456c-0.68-0.669-1.268-1.251-2.034-1.4c-0.961-0.191-1.833,0.373-2.671,0.993
		c0.036-0.558,0.104-1.194,0.198-1.8c0.107-0.656-0.276-1.292-0.906-1.509c-0.625-0.211-1.317,0.052-1.638,0.632
		c-0.628,1.128-1.38,2.278-1.889,2.929c-0.086-0.104-0.175-0.204-0.251-0.294c-0.659-0.771-1.342-1.562-2.334-1.672l-0.257-0.027
		c-0.782-0.094-1.585-0.186-2.55,0.564c-0.706,0.556-0.928,1.596-1.228,3.028c-0.169,0.786-0.355,1.685-0.581,2.256
		c-0.169,0.171-1.096,0.314-1.786-0.222c-0.244-0.208-0.945-1.091-2.9-4.106l-0.197-0.302c-0.3-0.468-0.641-1.06-1.002-1.688
		c-1.529-2.666-2.613-4.482-4-5.037c-0.656-0.283-1.467-0.232-2.695-0.152c-2.72,0.179-7.273,0.471-11.144-3.346
		c-3.598-2.964-5.256-9.337-5.431-10.049c-0.479-1.924-0.566-3.137-0.696-4.974l-0.019-0.23c-0.141-2.02,0.151-4.464,1.012-8.437
		c0.162-0.74-0.301-1.47-1.047-1.629C90.85,79.986,90.123,80.455,89.964,81.193"/>
	<path fill="#FFFFFF" d="M87.527,75.434c0.269,0.329,0.528,0.639,0.782,0.942c2.327,2.786,4.044,4.458,5.758,5.641l0.188,0.132
		c1.575,1.078,2.715,1.859,4.729,2.781c1.229,0.568,7.646,3.335,12.828,2.23c6.501-0.77,9.67-5.319,11.371-7.762
		c0.332-0.481,0.749-1.078,0.851-1.171c0.002-0.001,0.002-0.001,0.003-0.001c0.641-0.314,3.389,0.106,4.71,0.311
		c0.775,0.121,1.497,0.234,2.099,0.291l0.356,0.037c3.567,0.35,5.176,0.408,5.926,0.225c1.339-0.323,2.553-1.334,3.094-2.576
		c0.399-0.926,0.389-1.859-0.043-2.628c-0.439-0.792-1.108-1.599-1.695-2.312c-0.31-0.375-0.748-0.908-0.938-1.209
		c0.071-0.078,0.196-0.198,0.303-0.305l0.089-0.09c0.224-0.049,0.722-0.07,1.034-0.083c0.934-0.034,1.899-0.073,2.562-0.687
		c0.291-0.268,0.69-0.648,0.497-2.053c0.289,0.088,0.482,0.079,0.607,0.075c0.485-0.022,0.927-0.253,1.215-0.628
		c0.503-0.657,0.536-1.572,0.566-2.54c0.011-0.282,0.023-0.701,0.062-0.979c0.223-0.043,0.544-0.084,0.8-0.111
		c1.047-0.129,2.342-0.279,3.453-0.98c1.148-0.726,1.492-2.402,1.584-3.092c0.193-1.414-0.043-2.77-0.639-3.718
		c-0.625-0.987-1.691-2.209-2.82-3.5c-1.601-1.829-3.414-3.897-4.118-5.483c-1.215-2.754-1.121-5.24-0.938-7.35
		c0.204-2.366,1.149-5.165,1.718-6.691c0.143-0.377,0.265-0.691,0.34-0.883c-0.106-0.425-0.464-1.699-1.304-3.525
		c-0.424,0.725-0.791,1.483-1.093,2.166c-0.087,0.193-2.057,4.834-2.391,8.695c-0.228,2.633-0.244,5.508,1.163,8.694
		c0.871,1.966,2.833,4.208,4.56,6.183c1.058,1.205,2.057,2.348,2.565,3.154c0.557,0.88,0.186,2.732-0.09,3.035
		c-0.585,0.367-1.507,0.479-2.324,0.58c-0.946,0.113-1.769,0.21-2.365,0.715c-0.749,0.632-0.851,1.667-0.887,2.708
		c-0.412-0.375-0.869-0.825-1.284-1.274c-0.446-0.494-1.182-0.591-1.744-0.232c-0.556,0.357-0.782,1.062-0.528,1.674
		c0.491,1.193,0.922,2.499,1.111,3.303c-0.134,0.002-0.268,0.01-0.385,0.014c-1.013,0.033-2.059,0.074-2.762,0.781l-0.184,0.184
		c-0.559,0.553-1.131,1.125-1.146,2.347c-0.007,0.897,0.668,1.72,1.602,2.849c0.508,0.621,1.095,1.327,1.402,1.86
		c0.024,0.238-0.437,1.054-1.288,1.259c-0.315,0.061-1.442,0.059-5.021-0.294l-0.357-0.032c-0.551-0.058-1.228-0.16-1.944-0.27
		c-3.038-0.467-5.135-0.752-6.433-0.014c-0.631,0.338-1.096,1.004-1.801,2.014c-1.556,2.236-4.166,5.979-9.562,6.626
		c-4.56,0.966-10.577-1.713-11.245-2.021c-1.801-0.826-2.804-1.512-4.32-2.554l-0.191-0.13c-1.669-1.148-3.398-2.9-5.966-6.052
		c-0.478-0.587-1.337-0.681-1.927-0.197C87.136,73.988,87.051,74.849,87.527,75.434"/>
	<path fill="#FFFFFF" d="M81.429,73.773c0.426-0.005,0.831-0.016,1.226-0.023c3.63-0.083,6.005-0.385,7.998-0.985l0.22-0.065
		c1.827-0.561,3.149-0.963,5.125-1.963c1.211-0.605,7.375-3.898,9.742-8.64c3.452-5.562,1.87-10.876,1.021-13.729
		c-0.17-0.558-0.376-1.256-0.385-1.394c0-0.003,0-0.003,0.002-0.005c0.155-0.697,2.197-2.582,3.18-3.488
		c0.577-0.531,1.116-1.025,1.536-1.459l0.251-0.256c2.497-2.572,3.544-3.793,3.869-4.493c0.583-1.249,0.547-2.829-0.084-4.024
		c-0.477-0.891-1.215-1.463-2.082-1.605c-0.894-0.15-1.941-0.13-2.865-0.115c-0.488,0.008-1.177,0.021-1.53-0.02
		c-0.016-0.104-0.034-0.275-0.049-0.426l-0.015-0.127c0.1-0.207,0.394-0.608,0.578-0.859c0.557-0.752,1.128-1.531,1.06-2.432
		c-0.026-0.394-0.075-0.944-1.294-1.668c0.249-0.172,0.363-0.328,0.439-0.428c0.285-0.394,0.379-0.884,0.267-1.343
		c-0.2-0.803-0.897-1.397-1.635-2.024c-0.213-0.186-0.532-0.457-0.727-0.66c0.105-0.201,0.273-0.479,0.41-0.694
		c0.554-0.899,1.244-2.006,1.388-3.312c0.148-1.35-0.947-2.664-1.429-3.166c-0.985-1.033-2.193-1.693-3.305-1.818
		c-1.162-0.127-2.781-0.057-4.497,0.021c-2.428,0.112-5.175,0.24-6.854-0.199c-2.912-0.767-4.795-2.391-6.332-3.848
		c-1.722-1.635-3.32-4.119-4.161-5.519c-0.207-0.347-0.374-0.638-0.478-0.815c-0.397-0.183-1.617-0.695-3.57-1.18
		c0.303,0.784,0.668,1.544,1.014,2.204c0.097,0.19,2.497,4.623,5.306,7.292c1.918,1.82,4.156,3.624,7.523,4.511
		c2.08,0.546,5.055,0.409,7.677,0.289c1.604-0.073,3.118-0.144,4.065-0.038c1.035,0.115,2.252,1.559,2.316,1.962
		c-0.079,0.688-0.564,1.478-0.995,2.179c-0.502,0.812-0.938,1.516-0.915,2.295c0.027,0.979,0.773,1.705,1.563,2.383
		c-0.55,0.088-1.187,0.165-1.797,0.208c-0.666,0.042-1.199,0.557-1.27,1.22c-0.066,0.657,0.343,1.273,0.981,1.456
		c1.239,0.36,2.529,0.838,3.274,1.19c-0.082,0.105-0.159,0.217-0.229,0.309c-0.605,0.814-1.225,1.657-1.111,2.648l0.03,0.258
		c0.082,0.781,0.171,1.585,1.119,2.357c0.696,0.565,1.759,0.549,3.226,0.524c0.804-0.011,1.718-0.028,2.329,0.063
		c0.2,0.127,0.55,0.998,0.181,1.791c-0.148,0.284-0.854,1.164-3.359,3.741l-0.25,0.259c-0.389,0.396-0.89,0.86-1.422,1.354
		c-2.259,2.084-3.791,3.544-4.02,5.02c-0.131,0.706,0.102,1.482,0.451,2.664c0.778,2.611,2.077,6.985-0.783,11.607
		c-2.088,4.167-7.933,7.201-8.588,7.533c-1.769,0.895-2.931,1.25-4.69,1.785l-0.223,0.067c-1.938,0.588-4.386,0.849-8.452,0.894
		c-0.757,0.006-1.364,0.619-1.355,1.381C80.056,73.177,80.677,73.781,81.429,73.773"/>
	<path fill="#FFFFFF" d="M76.353,77.424c0.264-0.337,0.506-0.658,0.747-0.973c2.199-2.891,3.442-4.935,4.216-6.868l0.086-0.212
		c0.701-1.776,1.21-3.063,1.66-5.23c0.28-1.326,1.55-8.195-0.681-13.004c-2.196-6.166-7.337-8.242-10.097-9.357
		c-0.542-0.215-1.218-0.488-1.33-0.567c-0.002-0.001-0.002-0.001-0.002-0.004c-0.449-0.556-0.649-3.328-0.745-4.661
		c-0.057-0.783-0.107-1.512-0.184-2.11L69.98,34.08c-0.453-3.555-0.756-5.135-1.102-5.825c-0.612-1.233-1.87-2.19-3.2-2.442
		c-0.994-0.184-1.901,0.035-2.552,0.627c-0.675,0.604-1.312,1.436-1.876,2.166c-0.297,0.387-0.718,0.932-0.968,1.184
		c-0.093-0.053-0.239-0.146-0.366-0.227l-0.107-0.068c-0.099-0.207-0.23-0.687-0.312-0.988c-0.241-0.904-0.494-1.835-1.241-2.344
		c-0.324-0.225-0.785-0.53-2.11-0.028c0.021-0.302-0.031-0.487-0.062-0.608c-0.129-0.469-0.453-0.849-0.883-1.047
		c-0.753-0.344-1.652-0.169-2.603,0.016c-0.278,0.052-0.688,0.131-0.969,0.156c-0.091-0.207-0.204-0.512-0.288-0.752
		c-0.358-0.994-0.793-2.225-1.725-3.149c-0.961-0.958-2.671-0.919-3.364-0.857c-1.421,0.126-2.691,0.66-3.483,1.451
		c-0.823,0.829-1.776,2.14-2.786,3.529c-1.425,1.967-3.039,4.196-4.43,5.235c-2.414,1.797-4.858,2.258-6.956,2.549
		c-2.352,0.328-5.29,0.028-6.907-0.186c-0.399-0.055-0.732-0.105-0.936-0.136c-0.391,0.196-1.553,0.83-3.148,2.056
		c0.801,0.253,1.623,0.442,2.355,0.583c0.209,0.043,5.172,0.931,9.009,0.398c2.619-0.366,5.425-0.99,8.217-3.069
		c1.724-1.287,3.473-3.697,5.013-5.822c0.941-1.301,1.831-2.529,2.506-3.203c0.734-0.737,2.623-0.789,2.978-0.588
		c0.488,0.491,0.804,1.363,1.083,2.137c0.321,0.897,0.599,1.679,1.223,2.146c0.783,0.59,1.815,0.457,2.837,0.264
		c-0.272,0.484-0.61,1.03-0.957,1.537c-0.382,0.543-0.313,1.281,0.161,1.75c0.471,0.461,1.21,0.526,1.751,0.142
		c1.055-0.744,2.232-1.456,2.972-1.818c0.031,0.132,0.07,0.261,0.099,0.372c0.259,0.98,0.531,1.99,1.376,2.52l0.222,0.139
		c0.662,0.422,1.347,0.854,2.542,0.595c0.875-0.192,1.526-1.032,2.422-2.196c0.492-0.635,1.049-1.361,1.5-1.781
		c0.226-0.077,1.125,0.193,1.515,0.976c0.129,0.293,0.378,1.394,0.831,4.958l0.046,0.357c0.066,0.552,0.118,1.232,0.172,1.957
		c0.219,3.064,0.407,5.173,1.417,6.272c0.47,0.542,1.223,0.845,2.364,1.308c2.526,1.02,6.757,2.731,8.589,7.851
		c1.955,4.229,0.684,10.692,0.533,11.41c-0.402,1.94-0.848,3.069-1.529,4.78l-0.084,0.217c-0.749,1.883-2.071,3.958-4.57,7.165
		c-0.468,0.597-0.368,1.452,0.236,1.922C75.034,78.124,75.891,78.017,76.353,77.424"/>
	<path fill="#FFFFFF" d="M75.911,83.801c-0.099-0.415-0.197-0.807-0.295-1.19c-0.888-3.521-1.711-5.768-2.739-7.579l-0.113-0.198
		c-0.953-1.654-1.64-2.856-3.054-4.56c-0.861-1.046-5.442-6.322-10.592-7.574c-6.19-2.127-11.018,0.599-13.611,2.06
		c-0.506,0.291-1.142,0.647-1.273,0.687c-0.002,0.002-0.002,0.002-0.005,0c-0.714,0.004-3.006-1.566-4.108-2.324
		c-0.647-0.443-1.249-0.857-1.764-1.172l-0.306-0.188c-3.063-1.863-4.486-2.611-5.242-2.771c-1.346-0.291-2.878,0.096-3.904,0.979
		c-0.763,0.663-1.157,1.509-1.101,2.387c0.051,0.904,0.304,1.92,0.524,2.818c0.117,0.473,0.282,1.143,0.322,1.495
		c-0.1,0.04-0.264,0.096-0.405,0.146l-0.12,0.041c-0.223-0.052-0.681-0.248-0.967-0.373c-0.856-0.375-1.744-0.758-2.606-0.492
		c-0.377,0.114-0.903,0.283-1.337,1.633c-0.223-0.204-0.402-0.28-0.516-0.331c-0.446-0.19-0.944-0.175-1.366,0.038
		c-0.739,0.375-1.164,1.187-1.612,2.045c-0.132,0.248-0.326,0.619-0.481,0.855c-0.22-0.058-0.527-0.16-0.769-0.246
		c-0.999-0.338-2.233-0.767-3.537-0.615c-1.349,0.156-2.385,1.518-2.768,2.099c-0.789,1.188-1.163,2.515-1.038,3.626
		c0.135,1.161,0.565,2.723,1.023,4.378c0.648,2.343,1.385,4.992,1.33,6.728c-0.099,3.008-1.263,5.207-2.342,7.028
		c-1.21,2.043-3.276,4.153-4.453,5.284c-0.291,0.278-0.538,0.507-0.689,0.647c-0.089,0.428-0.319,1.729-0.355,3.741
		c0.697-0.469,1.356-0.991,1.923-1.479c0.164-0.137,3.952-3.463,5.928-6.795c1.347-2.275,2.608-4.857,2.723-8.34
		c0.068-2.148-0.726-5.02-1.426-7.549c-0.43-1.545-0.835-3.006-0.941-3.955c-0.12-1.035,1.018-2.541,1.396-2.694
		c0.688-0.076,1.567,0.22,2.346,0.485c0.902,0.308,1.686,0.576,2.441,0.381c0.949-0.245,1.489-1.135,1.975-2.055
		c0.209,0.516,0.425,1.121,0.604,1.707c0.188,0.639,0.808,1.043,1.471,0.967c0.655-0.082,1.164-0.619,1.202-1.283
		c0.076-1.286,0.253-2.651,0.431-3.456c0.123,0.058,0.246,0.106,0.353,0.155c0.927,0.41,1.886,0.826,2.828,0.496l0.246-0.088
		c0.743-0.256,1.508-0.521,2.05-1.617c0.396-0.805,0.145-1.836-0.206-3.262c-0.189-0.779-0.412-1.669-0.458-2.285
		c0.081-0.224,0.852-0.758,1.707-0.574c0.31,0.08,1.325,0.574,4.394,2.44l0.309,0.187c0.471,0.291,1.038,0.677,1.636,1.084
		c2.534,1.74,4.3,2.908,5.79,2.804c0.715-0.028,1.422-0.429,2.496-1.031c2.371-1.34,6.347-3.58,11.491-1.821
		c4.525,1.107,8.786,6.133,9.253,6.696c1.267,1.524,1.872,2.578,2.785,4.177l0.117,0.199c1.005,1.76,1.804,4.088,2.752,8.041
		c0.174,0.738,0.907,1.193,1.65,1.017C75.636,85.27,76.088,84.533,75.911,83.801"/>
	<path fill="#FFFFFF" d="M51.792,152.33c-0.004-0.213-0.244-5.25-1.618-8.871c-0.938-2.474-2.171-5.068-4.821-7.328
		c-1.637-1.394-4.377-2.562-6.792-3.592c-1.477-0.627-2.871-1.224-3.679-1.729c-0.883-0.552-1.353-2.382-1.236-2.771
		c0.368-0.586,1.149-1.089,1.841-1.532c0.802-0.513,1.502-0.958,1.821-1.671c0.399-0.896,0.041-1.871-0.376-2.825
		c0.534,0.159,1.143,0.366,1.711,0.593c0.615,0.251,1.32,0.019,1.672-0.548c0.344-0.562,0.242-1.296-0.252-1.74
		c-0.96-0.861-1.916-1.852-2.435-2.491c0.122-0.06,0.238-0.127,0.341-0.18c0.899-0.469,1.821-0.96,2.15-1.901l0.086-0.247
		c0.263-0.739,0.533-1.503,0.014-2.61c-0.383-0.811-1.347-1.258-2.68-1.871c-0.728-0.339-1.561-0.721-2.07-1.068
		c-0.125-0.199-0.063-1.137,0.614-1.69c0.256-0.193,1.274-0.68,4.648-1.914l0.338-0.125c0.522-0.188,1.175-0.391,1.868-0.604
		c2.94-0.896,4.953-1.549,5.801-2.777c0.423-0.578,0.551-1.38,0.749-2.598c0.431-2.688,1.159-7.192,5.74-10.118
		c3.689-2.847,10.273-3.045,11.006-3.06c1.982-0.04,3.183,0.146,5.001,0.427l0.229,0.033c2.003,0.312,4.32,1.139,8.003,2.862
		c0.685,0.322,1.497,0.033,1.822-0.659c0.317-0.685,0.021-1.497-0.66-1.816c-0.386-0.183-0.754-0.348-1.116-0.511
		c-3.306-1.5-5.576-2.258-7.632-2.583l-0.226-0.036c-1.888-0.286-3.255-0.498-5.47-0.452c-1.354,0.021-8.335,0.312-12.526,3.559
		c-5.522,3.512-6.4,8.987-6.875,11.926c-0.089,0.576-0.207,1.296-0.258,1.424c0,0.002,0,0.002-0.004,0.002
		c-0.44,0.562-3.1,1.375-4.377,1.765c-0.751,0.229-1.449,0.439-2.016,0.649l-0.338,0.12c-3.365,1.233-4.839,1.88-5.435,2.371
		c-1.066,0.871-1.72,2.31-1.669,3.661c0.043,1.01,0.458,1.846,1.18,2.349c0.738,0.524,1.691,0.96,2.53,1.35
		c0.441,0.201,1.067,0.492,1.369,0.68c-0.032,0.102-0.089,0.268-0.14,0.409l-0.042,0.119c-0.181,0.14-0.619,0.376-0.894,0.522
		c-0.829,0.436-1.681,0.893-2.011,1.731c-0.146,0.366-0.342,0.883,0.443,2.063c-0.298,0.046-0.469,0.138-0.581,0.196
		c-0.427,0.229-0.725,0.628-0.822,1.092c-0.167,0.811,0.203,1.649,0.595,2.535c0.111,0.257,0.281,0.643,0.368,0.909
		c-0.183,0.135-0.454,0.312-0.67,0.447c-0.888,0.569-1.992,1.268-2.686,2.381c-0.719,1.151-0.301,2.812-0.086,3.475
		c0.438,1.357,1.24,2.477,2.187,3.07c0.993,0.619,2.483,1.257,4.062,1.932c2.235,0.952,4.767,2.027,6.09,3.152
		c2.29,1.953,3.283,4.234,4.035,6.214c0.842,2.222,1.204,5.151,1.356,6.774c0.035,0.4,0.06,0.737,0.076,0.942
		c0.278,0.338,1.154,1.327,2.705,2.613C51.816,153.919,51.818,153.074,51.792,152.33"/>
	<path fill="#FFFFFF" d="M111.266,145.216c-2.517-0.808-5.318-1.462-8.735-0.798c-2.109,0.412-4.732,1.824-7.042,3.07
		c-1.411,0.763-2.746,1.481-3.647,1.797c-0.982,0.347-2.706-0.427-2.938-0.761c-0.228-0.653-0.135-1.577-0.05-2.396
		c0.1-0.946,0.188-1.771-0.172-2.463c-0.45-0.873-1.436-1.2-2.441-1.469c0.458-0.318,0.999-0.664,1.529-0.97
		c0.58-0.326,0.838-1.02,0.615-1.647c-0.225-0.621-0.863-0.997-1.518-0.889c-1.271,0.215-2.641,0.344-3.465,0.352
		c0.028-0.133,0.049-0.267,0.072-0.38c0.192-0.995,0.386-2.022-0.146-2.866l-0.14-0.223c-0.414-0.666-0.842-1.354-2.033-1.636
		c-0.872-0.209-1.823,0.267-3.135,0.925c-0.717,0.358-1.535,0.773-2.124,0.954c-0.236-0.025-0.929-0.657-0.941-1.535
		c0.011-0.32,0.264-1.421,1.402-4.827l0.113-0.342c0.18-0.524,0.429-1.161,0.694-1.837c1.131-2.856,1.876-4.84,1.443-6.27
		c-0.188-0.689-0.735-1.291-1.562-2.202c-1.834-2.015-4.902-5.392-4.333-10.798c0.074-4.659,4.023-9.931,4.471-10.513
		c1.204-1.575,2.096-2.398,3.452-3.645l0.168-0.159c1.491-1.37,3.582-2.667,7.227-4.473c0.681-0.335,0.959-1.148,0.621-1.835
		c-0.339-0.676-1.158-0.95-1.832-0.616c-0.383,0.188-0.742,0.373-1.095,0.554c-3.234,1.648-5.242,2.952-6.779,4.357l-0.167,0.154
		c-1.401,1.297-2.419,2.233-3.765,3.994c-0.828,1.071-4.953,6.711-5.028,12.012c-0.696,6.508,3.036,10.607,5.037,12.812
		c0.396,0.431,0.886,0.971,0.952,1.089c0.003,0.003,0.003,0.003,0.001,0.005c0.164,0.692-0.857,3.279-1.351,4.521
		c-0.289,0.731-0.558,1.41-0.749,1.982l-0.117,0.341c-1.134,3.398-1.547,4.955-1.535,5.727c0.017,1.377,0.733,2.785,1.823,3.59
		c0.816,0.597,1.728,0.791,2.572,0.541c0.869-0.25,1.805-0.724,2.63-1.139c0.434-0.219,1.052-0.528,1.386-0.645
		c0.059,0.088,0.151,0.233,0.231,0.362l0.066,0.107c-0.002,0.228-0.09,0.719-0.148,1.022c-0.176,0.921-0.351,1.869,0.101,2.652
		c0.195,0.342,0.477,0.817,1.891,0.939c-0.15,0.263-0.186,0.454-0.209,0.575c-0.086,0.479,0.04,0.96,0.341,1.326
		c0.53,0.635,1.417,0.869,2.353,1.113c0.271,0.075,0.678,0.182,0.94,0.279c-0.007,0.229-0.038,0.551-0.068,0.805
		c-0.107,1.051-0.25,2.348,0.188,3.586c0.453,1.278,2.009,1.988,2.663,2.231c1.335,0.504,2.71,0.573,3.765,0.203
		c1.101-0.39,2.53-1.156,4.041-1.971c2.139-1.154,4.558-2.463,6.263-2.797c2.954-0.572,5.356,0.074,7.375,0.721
		c2.261,0.728,4.777,2.271,6.143,3.166c0.335,0.223,0.614,0.412,0.782,0.526c0.438-0.005,1.76-0.073,3.731-0.485
		c-0.614-0.573-1.273-1.104-1.871-1.547C119.042,149.354,114.955,146.399,111.266,145.216"/>
	<polygon points="223.2,80.172 217.305,55.019 204.946,81.226 192.538,55.019 186.548,80.172 183.195,80.172 191.483,45.197 
		204.946,73.56 218.361,45.197 226.65,80.172 	"/>
	<polygon points="233.547,80.172 233.547,76.914 237.86,76.914 237.86,49.605 233.547,49.605 233.547,46.348 245.428,46.348 
		245.428,49.605 241.165,49.605 241.165,76.914 245.428,76.914 245.428,80.172 	"/>
	<polygon points="257.838,52.24 257.838,80.171 254.53,80.171 254.53,43.809 281.937,73.943 281.937,49.605 276.188,49.605 
		276.188,46.348 285.195,46.348 285.195,82.375 	"/>
	<path d="M323.495,70.23c-0.908,2.094-2.138,3.922-3.687,5.486c-1.552,1.564-3.369,2.795-5.462,3.689
		c-2.094,0.894-4.319,1.342-6.684,1.342c-3.164,0-6.068-0.799-8.72-2.396V49.652h-5.798v-3.305h14.516
		c2.363,0,4.592,0.455,6.684,1.365c2.093,0.91,3.911,2.14,5.464,3.689c1.547,1.549,2.777,3.368,3.687,5.461
		c0.911,2.092,1.367,4.319,1.367,6.684C324.862,65.91,324.408,68.139,323.495,70.23 M320.455,58.133
		c-0.734-1.691-1.724-3.162-2.972-4.407c-1.245-1.245-2.714-2.235-4.407-2.971c-1.689-0.734-3.496-1.103-5.412-1.103h-5.462v26.734
		c1.757,0.734,3.576,1.102,5.462,1.102c1.916,0,3.723-0.367,5.412-1.102c1.693-0.736,3.164-1.734,4.407-2.995
		c1.248-1.261,2.236-2.739,2.972-4.431c0.736-1.693,1.104-3.499,1.104-5.414C321.558,61.631,321.192,59.826,320.455,58.133"/>
	<path fill="#519933" d="M353.11,59.38c-1.832-2.338-3.008-4.065-3.523-5.179c-0.517-1.114-0.772-2.168-0.772-3.166
		c0-1.721,0.71-3.226,2.132-4.516c1.422-1.289,3.451-1.936,6.084-1.936c2.437,0,4.322,0.625,5.658,1.875s2.003,2.803,2.003,4.658
		c0,1.758-0.449,3.225-1.346,4.396s-2.378,2.217-4.442,3.137c0.681,0.953,1.772,2.276,3.274,3.969
		c0.505,0.564,0.887,1.013,1.141,1.344l5,6.219c1.656-1.868,2.881-3.566,3.669-5.094c0.79-1.528,1.186-2.7,1.186-3.518
		c0-0.565-0.181-1.051-0.544-1.459c-0.357-0.41-0.979-0.73-1.855-0.965c-0.076-0.195-0.115-0.341-0.115-0.438l0.061-0.262
		l3.36-0.324c0.682-0.096,1.647-0.164,2.896-0.204c1.248-0.039,2.982-0.146,5.205-0.322l0.06,0.351c0,0.117-0.039,0.283-0.116,0.498
		c-1.367,0.584-2.529,1.25-3.494,2s-2.428,2.269-4.389,4.556c-1.958,2.286-3.64,4.393-5.044,6.321
		c2.477,2.957,4.217,4.771,5.22,5.442c1.004,0.673,2.083,1.009,3.231,1.009c1.269,0,2.368-0.38,3.306-1.14
		c0.626-0.488,1.071-0.731,1.346-0.731c0.098,0,0.264,0.039,0.497,0.117c-0.429,1.832-0.828,2.895-1.199,3.188
		c-1.481,1.228-3.11,1.843-4.883,1.843c-1.091,0-2.109-0.171-3.057-0.513c-0.947-0.34-1.925-0.871-2.938-1.594
		c-0.584-0.429-1.569-1.315-2.954-2.662c-0.878-0.854-1.453-1.398-1.727-1.631c-1.56,1.559-2.719,2.619-3.479,3.185
		c-1.347,0.993-2.813,1.772-4.401,2.337c-1.59,0.564-3.408,0.848-5.453,0.848c-2.514,0-4.605-0.525-6.271-1.576
		c-1.666-1.052-2.877-2.414-3.625-4.088c-0.751-1.675-1.127-3.271-1.127-4.791c0-1.168,0.214-2.293,0.643-3.373
		c0.431-1.08,0.995-2.004,1.696-2.774c0.702-0.769,1.646-1.562,2.836-2.379c0.41-0.273,1.416-0.808,3.012-1.606
		C350.858,59.943,351.939,59.594,353.11,59.38 M365.246,73.568l-0.234-0.32l-0.089-0.117l-6.521-7.766
		c-0.8-0.992-2.279-2.676-4.443-5.051c-2.438,0.914-4.283,2.219-5.54,3.912c-1.26,1.694-1.888,3.484-1.888,5.373
		c0,0.525,0.16,1.266,0.482,2.219c0.321,0.955,0.899,1.883,1.738,2.789c0.839,0.905,1.9,1.61,3.188,2.116
		c1.286,0.506,2.76,0.759,4.415,0.759c1.91,0,3.643-0.375,5.19-1.123C363.097,75.607,364.329,74.678,365.246,73.568 M357.817,57.537
		c1.092-0.467,1.949-1.256,2.575-2.367c0.622-1.111,0.936-2.291,0.936-3.539c0-1.852-0.429-3.27-1.288-4.254
		c-0.854-0.984-1.948-1.477-3.273-1.477c-1.188,0-2.154,0.355-2.896,1.066c-0.739,0.712-1.111,1.564-1.111,2.559
		c0,1.033,0.391,2.164,1.17,3.393C355.039,54.635,356.336,56.174,357.817,57.537"/>
	<polygon points="402.793,80.172 402.793,49.605 397.044,49.605 397.044,46.348 406.052,46.348 406.052,76.914 420.472,76.914 
		420.472,80.172 	"/>
	<polygon points="427.945,80.172 427.945,76.914 432.257,76.914 432.257,49.605 427.945,49.605 427.945,46.348 439.827,46.348 
		439.827,49.605 435.564,49.605 435.564,76.914 439.827,76.914 439.827,80.172 	"/>
	<polygon points="456.021,64.457 456.021,80.171 452.762,80.171 452.762,49.605 446.966,49.605 446.966,46.348 469.818,46.348 
		469.818,49.605 456.021,49.605 456.021,61.199 469.818,61.199 469.818,64.457 	"/>
	<polygon points="482.944,80.172 482.944,49.605 477.149,49.605 477.149,46.348 500,46.348 500,49.605 486.2,49.605 486.2,61.152 
		500,61.152 500,64.458 486.2,64.458 486.2,76.914 500,76.914 500,80.172 	"/>
	<polygon points="277.247,127.633 277.243,103.156 288.651,103.156 288.651,104.611 278.774,104.611 278.774,114.076 
		288.651,114.076 288.651,115.534 278.774,115.534 278.774,126.176 288.651,126.176 288.651,127.633 	"/>
	<path d="M310.026,122.777c-0.427,1.04-1.046,1.965-1.86,2.774c-0.807,0.809-1.724,1.434-2.764,1.872s-2.139,0.659-3.302,0.659
		c-1.176,0-2.281-0.221-3.304-0.659c-1.035-0.438-1.946-1.063-2.762-1.872c-0.807-0.811-1.431-1.734-1.869-2.774
		c-0.438-1.04-0.658-2.142-0.658-3.294v-16.329h1.528v16.329c0,0.97,0.181,1.878,0.529,2.725c0.362,0.844,0.872,1.6,1.543,2.269
		c0.671,0.671,1.432,1.185,2.275,1.541c0.847,0.359,1.747,0.539,2.716,0.539c0.973,0,1.892-0.185,2.743-0.553
		c0.856-0.372,1.597-0.871,2.235-1.508c0.634-0.636,1.131-1.388,1.509-2.254c0.371-0.867,0.551-1.789,0.551-2.759v-16.329h1.529
		v16.329C310.668,120.636,310.459,121.738,310.026,122.777"/>
	<path d="M334.726,127.633l-7.415-10.573c-0.438,0.046-0.888,0.08-1.342,0.104c-0.445,0.021-0.896,0.032-1.364,0.032
		c-0.618,0-1.246-0.018-1.871-0.052c-0.624-0.034-1.223-0.098-1.802-0.188v10.678h-1.526v-24.478h8.252
		c1.062,0,2.044,0.172,2.944,0.521c0.904,0.346,1.674,0.842,2.321,1.492c1.248,1.248,1.869,2.797,1.869,4.644
		c0,1.434-0.332,2.691-0.997,3.78c-0.671,1.086-1.659,1.93-2.951,2.531c-0.279,0.137-0.581,0.257-0.92,0.36
		c-0.333,0.105-0.688,0.205-1.059,0.298l7.63,10.852L334.726,127.633L334.726,127.633z M331.851,106.174
		c-0.512-0.508-1.126-0.9-1.842-1.179c-0.711-0.278-1.494-0.415-2.353-0.415h-6.726v10.92c1.133,0.209,2.335,0.311,3.604,0.311
		c1.063,0,2.083-0.08,3.067-0.242c0.98-0.161,1.845-0.414,2.584-0.762c0.345-0.162,0.703-0.379,1.071-0.645
		c0.37-0.263,0.706-0.599,1.009-1.003c0.302-0.405,0.535-0.888,0.727-1.438c0.186-0.557,0.276-1.19,0.276-1.908
		C333.271,108.336,332.801,107.12,331.851,106.174"/>
	<path d="M363.125,120.301c-0.671,1.539-1.577,2.879-2.727,4.023c-1.145,1.141-2.485,2.048-4.021,2.719
		c-1.536,0.672-3.188,1.006-4.937,1.006c-1.734,0-3.367-0.334-4.912-1.006c-1.53-0.671-2.874-1.578-4.02-2.719
		c-1.142-1.146-2.055-2.484-2.726-4.023c-0.671-1.538-1.001-3.172-1.001-4.906c0-1.758,0.33-3.401,1.001-4.938
		s1.584-2.881,2.726-4.023c1.146-1.145,2.488-2.052,4.02-2.719c1.545-0.672,3.176-1.008,4.912-1.008
		c1.748,0,3.399,0.336,4.937,1.008c1.534,0.667,2.877,1.574,4.021,2.719c1.147,1.144,2.056,2.486,2.727,4.023
		c0.674,1.537,0.999,3.182,0.999,4.938C364.124,117.129,363.796,118.762,363.125,120.301 M361.716,111.045
		c-0.588-1.354-1.39-2.532-2.393-3.539c-0.997-1.004-2.182-1.801-3.535-2.394c-1.349-0.588-2.799-0.881-4.346-0.881
		c-1.528,0-2.967,0.293-4.317,0.881c-1.354,0.593-2.53,1.39-3.534,2.394c-1.01,1.007-1.804,2.187-2.396,3.539
		c-0.591,1.353-0.88,2.801-0.88,4.35c0,1.527,0.289,2.965,0.88,4.315c0.594,1.353,1.388,2.534,2.396,3.538
		c1.004,1.006,2.18,1.799,3.534,2.389c1.352,0.59,2.789,0.886,4.317,0.886c1.547,0,2.997-0.296,4.346-0.886
		c1.354-0.59,2.538-1.383,3.535-2.389c1.003-1.004,1.809-2.187,2.393-3.538c0.591-1.352,0.887-2.788,0.887-4.315
		C362.603,113.845,362.307,112.396,361.716,111.045"/>
	<path d="M383.958,113.593c-0.673,1.084-1.66,1.93-2.951,2.529c-0.786,0.392-1.729,0.672-2.823,0.832
		c-1.104,0.162-2.236,0.24-3.414,0.24c-0.622,0-1.248-0.017-1.876-0.052c-0.619-0.033-1.226-0.098-1.801-0.188v10.679h-1.442
		v-24.477h8.174c1.062,0,2.04,0.172,2.942,0.52c0.899,0.346,1.67,0.844,2.317,1.494c1.245,1.248,1.871,2.795,1.871,4.643
		C384.957,111.244,384.627,112.504,383.958,113.593 M382.014,106.174c-0.51-0.508-1.122-0.9-1.838-1.179
		c-0.715-0.278-1.498-0.415-2.351-0.415h-6.732v10.92c1.131,0.209,2.337,0.311,3.612,0.311c1.062,0,2.078-0.08,3.065-0.242
		c0.979-0.161,1.838-0.414,2.578-0.762c0.345-0.162,0.702-0.379,1.068-0.645c0.373-0.263,0.712-0.599,1.013-1.003
		c0.3-0.405,0.546-0.888,0.727-1.438c0.186-0.557,0.276-1.19,0.276-1.908C383.432,108.336,382.961,107.12,382.014,106.174"/>
	<polygon points="392.73,127.633 392.729,103.154 404.134,103.156 404.134,104.611 394.254,104.611 394.254,114.076 
		404.134,114.076 404.134,115.534 394.254,115.534 394.254,126.176 404.134,126.176 404.134,127.633 	"/>
</g>
</svg>
