<svg width="162" height="40" viewBox="0 0 162 40" fill="none" xmlns="http://www.w3.org/2000/svg">
<path d="M148.537 24.6889C149.576 25.5582 150.095 26.6014 150.095 27.9923C150.095 29.0355 149.922 29.731 149.403 30.4264C148.883 31.1219 148.191 31.4696 147.152 31.4696C145.94 31.4696 145.248 31.1219 144.728 30.4264C144.209 29.731 144.036 28.8616 144.209 27.8184V26.0798L133.649 24.6889L133.302 26.7752C133.302 27.2968 133.302 27.6446 133.302 28.1662C133.302 28.5139 133.302 29.0355 133.476 29.3832C133.649 32.3389 135.034 34.5992 137.284 36.5117C139.535 38.2504 142.824 39.1197 147.152 39.1197C149.403 39.1197 151.307 38.772 153.038 38.2504C154.769 37.7288 156.154 36.8594 157.193 35.9901C158.405 34.9469 159.271 33.9037 159.79 32.6867C160.482 31.4696 160.829 30.0787 160.829 28.8616C160.829 28.5139 160.829 28.1662 160.829 27.6446C160.829 27.2968 160.829 26.7752 160.829 26.4275C160.829 25.2105 160.482 24.1673 160.136 23.1241C159.79 22.0809 159.097 21.2116 158.232 20.3422C157.366 19.4729 156.154 18.6036 154.769 17.9081C153.384 17.2127 151.48 16.3433 149.23 15.6479C148.018 15.1263 147.152 14.6047 146.287 13.9092C145.594 13.3876 145.075 12.866 144.728 12.1706C144.382 11.649 144.209 11.1274 144.209 10.6058C144.209 10.0842 144.382 9.73645 144.555 9.38872C144.728 8.86713 144.902 8.34553 145.594 8.17167C146.113 7.9978 146.806 7.82394 147.325 7.82394C148.191 7.9978 149.056 8.34553 149.576 8.86713C150.095 9.56259 150.268 10.258 150.095 11.3012V12.866L160.656 13.7354C160.656 13.3876 160.656 13.2138 160.829 12.866C160.829 12.5183 161.002 12.3444 161.002 11.9967C161.002 11.649 161.002 11.3012 161.002 11.1274C161.002 10.7796 161.002 10.6058 161.002 10.258C161.002 8.69326 160.656 7.30234 159.963 5.91142C159.271 4.69436 158.405 3.65117 157.193 2.78184C155.808 1.73865 154.423 1.04319 152.692 0.695461C150.961 0.173865 149.056 0 146.979 0C144.728 0 142.824 0.34773 141.266 0.869326C139.535 1.39092 138.15 2.08638 137.111 3.12957C135.899 3.9989 135.034 5.04209 134.514 6.25915C133.649 7.47621 133.302 8.69326 133.302 10.0842C133.129 11.8228 133.302 13.3876 133.822 14.6047C134.341 15.8217 135.207 17.0388 136.072 17.9081C137.111 18.9513 138.15 19.6468 139.535 20.3422C140.92 21.0377 142.132 21.5593 143.517 22.0809C145.767 22.9502 147.498 23.8195 148.537 24.6889ZM124.473 38.0765C126.204 37.381 127.589 36.3378 128.801 34.9469C129.84 33.556 130.706 31.8173 131.225 29.731C131.744 27.6446 131.917 25.2105 131.917 22.6025V0.347731H121.011V22.7764C121.011 23.6457 121.011 24.515 120.838 25.3843C120.665 26.2537 120.491 26.9491 120.318 27.6446C120.145 28.34 119.799 28.8616 119.453 29.2094C119.106 29.5571 118.587 29.731 118.068 29.731C115.99 29.731 114.952 28.1662 114.952 25.2105V0.347731H104.045V22.6025C104.045 25.2105 104.218 27.6446 104.737 29.731C105.257 31.8173 106.122 33.556 107.161 34.9469C108.2 36.3378 109.758 37.381 111.489 38.0765C113.22 38.772 115.471 39.1197 117.895 39.1197C120.665 39.1197 122.742 38.772 124.473 38.0765Z" fill="#67BC96"/>
<path d="M90.8887 12.6919H92.2736C92.9661 12.6919 93.4855 13.0397 93.8317 13.5613C94.178 13.909 94.3511 14.6045 94.3511 15.6476C94.3511 16.517 94.178 17.2124 93.8317 17.734C93.4855 18.2556 92.9661 18.6034 92.2736 18.6034H90.8887V12.6919ZM90.8887 23.4716H92.2736L94.6973 31.2955H101.795L98.3329 22.2545C98.6791 22.0807 99.0254 21.7329 99.3716 21.3852C99.7178 21.0375 100.064 20.5159 100.237 19.9943C100.583 19.4727 100.757 18.7772 100.93 18.0818C101.103 17.3863 101.103 16.517 101.103 15.6476C101.103 12.6919 100.41 10.4317 99.1985 9.04077C98.1598 7.64984 96.2554 6.95438 93.8317 6.95438H83.9638V31.2955H90.8887V23.4716ZM83.4445 25.9057H76.0002V21.3852H82.2326V16.3431H76.0002V12.3442H83.4445V6.95438H69.0754V31.2955H83.4445V25.9057ZM68.2098 15.2999C68.0367 12.5181 67.1711 10.2578 65.7861 8.8669C64.4011 7.47598 62.3237 6.78052 59.5537 6.78052C56.4375 6.78052 54.187 7.82371 52.802 9.73623C51.417 11.8226 50.5514 14.9522 50.5514 19.125C50.5514 21.5591 50.7245 23.4716 51.0708 25.0364C51.417 26.6012 52.1095 27.8182 52.802 28.8614C53.4945 29.9046 54.3601 30.4262 55.3988 30.9478C56.4375 31.2955 57.4763 31.6433 58.8612 31.6433C59.9 31.6433 60.7656 31.2955 61.458 30.7739C62.1505 30.2523 62.6699 29.5569 62.843 28.8614C62.843 29.2091 62.843 29.5569 63.0161 30.0785C63.0161 30.4262 63.0161 30.9478 63.1893 31.2955H68.3829V17.9079H59.2075V22.0807H61.9774C61.9774 23.2977 61.8043 24.3409 61.458 25.2102C61.1118 25.9057 60.5924 26.4273 59.9 26.4273C59.5537 26.4273 59.2075 26.2534 58.8612 26.0796C58.515 25.9057 58.3419 25.558 58.1687 25.0364C57.9956 24.5148 57.8225 23.8193 57.6494 22.95C57.4763 22.0807 57.4763 20.8636 57.4763 19.2988C57.4763 18.0818 57.4763 16.8647 57.6494 15.9954C57.8225 15.126 57.8225 14.4306 57.9956 13.909C58.1687 13.3874 58.3419 13.0397 58.6881 12.6919C59.0344 12.3442 59.2075 12.1703 59.5537 12.1703C60.0731 12.1703 60.5924 12.5181 60.7656 13.2135C61.1118 13.909 61.1118 14.7783 61.2849 15.9954L68.2098 15.2999ZM39.4716 12.6919H40.8566C41.5491 12.6919 42.0685 13.0397 42.4147 13.5613C42.761 13.909 42.9341 14.6045 42.9341 15.6476C42.9341 16.517 42.761 17.2124 42.4147 17.734C42.0685 18.2556 41.5491 18.6034 40.8566 18.6034H39.4716V12.6919ZM39.4716 23.4716H40.8566L43.2803 31.2955H50.3783L46.9159 22.2545C47.2621 22.0807 47.6083 21.7329 47.9546 21.3852C48.3008 21.0375 48.6471 20.5159 48.8202 19.9943C49.1664 19.4727 49.3396 18.7772 49.5127 18.0818C49.6858 17.3863 49.6858 16.517 49.6858 15.6476C49.6858 12.6919 48.9933 10.4317 47.7815 9.04077C46.7427 7.64984 44.8384 6.95438 42.4147 6.95438H32.5468V31.2955H39.4716V23.4716ZM22.6789 13.0397L22.852 10.7794C22.852 11.6487 23.0251 12.5181 23.0251 13.3874C23.1982 14.2567 23.1982 15.2999 23.3714 16.1692C23.5445 17.0386 23.5445 18.0818 23.7176 18.9511C23.8907 19.8204 23.8907 20.6897 24.0639 21.3852H21.467C21.467 20.8636 21.6402 20.342 21.6402 19.8204C21.6402 19.2988 21.8133 18.7772 21.8133 18.2556L22.6789 13.0397ZM21.1208 26.4273H24.7563L25.4488 31.2955H32.3737L28.3919 6.95438H17.3121L13.6766 31.2955H20.4283L21.1208 26.4273ZM13.6766 25.2102H6.92485V6.95438H0V31.2955H13.6766V25.2102Z" fill="#1D1D1B"/>
</svg>
