<svg xmlns="http://www.w3.org/2000/svg" width="46" height="45" viewBox="0 0 46 45" fill="none"><circle cx="23" cy="22.5" r="22.5" fill="#D17846"></circle><path d="M24.3329 6.99366V9.67059C31.0728 10.3425 36.3329 16.0509 36.3329 22.9935C36.3329 29.9352 31.0728 35.6427 24.3329 36.3149V38.9932C32.545 38.3124 39 31.4139 39 22.9932C39 14.571 32.5455 7.67531 24.3329 6.99316V6.99366Z" fill="white" stroke="#D17846"></path><path d="M21.6671 36.3154C14.93 35.6435 9.66714 29.9354 9.66714 22.9939C9.66714 16.0514 14.93 10.3425 21.6671 9.67107V6.99414C13.4564 7.67662 7 14.572 7 22.9941C7 31.4149 13.4559 38.3134 21.6671 38.9941V36.3154Z" fill="white" stroke="#D17846"></path><path d="M15.12 21.6607C15.7553 17.8778 19.0363 14.9939 23 14.9939C26.9637 14.9939 30.245 17.8778 30.88 21.6607H33.5739C32.918 16.4004 28.4403 12.3271 22.9996 12.3271C17.5621 12.3271 13.0825 16.4002 12.4254 21.6607H15.12Z" fill="white" stroke="#D17846"></path><path d="M30.88 24.3262C30.2447 28.1075 26.9637 30.993 23 30.993C19.0363 30.993 15.755 28.1075 15.12 24.3262H12.4261C13.0832 29.5865 17.5625 33.6597 23.0004 33.6597C28.4407 33.6597 32.9182 29.5867 33.5747 24.3262H30.88Z" fill="white" stroke="#D17846"></path><path d="M23 17.6611C20.0547 17.6611 17.6669 20.0493 17.6669 22.9943C17.6669 25.9396 20.0547 28.3274 23 28.3274C25.9464 28.3274 28.3332 25.9393 28.3332 22.9943C28.3332 20.049 25.9464 17.6611 23 17.6611ZM23 25.6611C21.5271 25.6611 20.3332 24.4672 20.3332 22.9943C20.3332 21.5213 21.5271 20.3274 23 20.3274C24.4741 20.3274 25.6669 21.5213 25.6669 22.9943C25.6669 24.4672 24.4741 25.6611 23 25.6611Z" fill="white" stroke="#D17846"></path></svg>