<svg xmlns="http://www.w3.org/2000/svg" width="46" height="46" viewBox="0 0 46 46" fill="none"><circle cx="23" cy="23" r="22.5" fill="#D17846"></circle><path d="M19.6337 23.33C19.6337 21.2861 21.2912 19.6293 23.3344 19.6293C25.3787 19.6293 27.0352 21.286 27.0352 23.33C27.0352 25.3732 25.3787 27.0308 23.3344 27.0308C21.2912 27.0308 19.6337 25.3732 19.6337 23.33ZM21.9677 23.33C21.9677 24.0857 22.5788 24.6968 23.3344 24.6968C24.0901 24.6968 24.7012 24.0857 24.7012 23.33C24.7012 22.5744 24.0901 21.9633 23.3344 21.9633C22.5788 21.9633 21.9677 22.5744 21.9677 23.33Z" fill="#EEEEEE" stroke="#D17846" stroke-width="0.2"></path><path d="M19.6101 28.7045L12.4568 35.8578L10.8068 34.2078L17.9601 27.0545L19.6101 28.7045Z" fill="#EEEEEE" stroke="#D17846" stroke-width="0.2"></path><path d="M27.0598 28.7035L28.7098 27.0535L35.8631 34.2068L34.213 35.8568L27.0598 28.7035Z" fill="#EEEEEE" stroke="#D17846" stroke-width="0.2"></path><path d="M28.7088 19.6049L27.0588 17.9549L34.2121 10.8016L35.8621 12.4516L28.7088 19.6049Z" fill="#EEEEEE" stroke="#D17846" stroke-width="0.2"></path><path d="M17.9605 19.6049L10.8072 12.4516L12.4572 10.8016L19.6105 17.9549L17.9605 19.6049Z" fill="#EEEEEE" stroke="#D17846" stroke-width="0.2"></path></svg>