<svg xmlns="http://www.w3.org/2000/svg" width="46" height="46" viewBox="0 0 46 46" fill="none"><circle cx="23" cy="23" r="22.5" fill="#D17846"></circle><path d="M32.1663 32.2663H32.2663V32.1663V23C32.2663 17.891 28.1093 13.7337 23 13.7337H13.8337H13.7337V13.8337V23C13.7337 28.1092 17.8907 32.2663 23 32.2663H32.1663ZM33.9 23V33.9H23C16.9807 33.9 12.1 29.0193 12.1 23V12.1H23C29.0193 12.1 33.9 16.9807 33.9 23Z" fill="white" stroke="#D17846" stroke-width="0.2"></path><path d="M15.7664 22.9997C15.7664 19.0047 19.0053 15.766 23 15.766C26.995 15.766 30.2337 19.0047 30.2337 22.9997C30.2337 26.9947 26.995 30.2333 23 30.2333C19.0051 30.2333 15.7664 26.9947 15.7664 22.9997ZM17.4 22.9997C17.4 26.0923 19.9067 28.5997 23 28.5997C26.0926 28.5997 28.6 26.0923 28.6 22.9997C28.6 19.9071 26.0926 17.3997 23 17.3997C19.9067 17.3997 17.4 19.9071 17.4 22.9997Z" fill="white" stroke="#D17846" stroke-width="0.2"></path><path d="M19.4335 23.0005C19.4335 21.0311 21.0304 19.434 23 19.434C24.9697 19.434 26.5666 21.0309 26.5666 23.0005C26.5666 24.9702 24.9697 26.5671 23 26.5671C21.0304 26.5671 19.4335 24.9702 19.4335 23.0005ZM21.0666 23.0005C21.0666 24.0684 21.9322 24.934 23 24.934C24.0679 24.934 24.9335 24.0684 24.9335 23.0005C24.9335 21.9327 24.0679 21.0671 23 21.0671C21.9322 21.0671 21.0666 21.9327 21.0666 23.0005Z" fill="white" stroke="#D17846" stroke-width="0.2"></path></svg>