<svg xmlns="http://www.w3.org/2000/svg" width="46" height="45" viewBox="0 0 46 45" fill="none"><circle cx="23" cy="22.5" r="22.5" fill="#D17846"></circle><path d="M36.1009 24.5483C36.1126 24.322 36.1349 24.098 36.1349 23.8686C36.1349 18.7723 33.2298 14.3672 28.9921 12.19C28.914 8.94282 26.2722 6.33203 23.0066 6.33203C19.7409 6.33203 17.0978 8.94253 17.0194 12.19C12.7812 14.3672 9.87658 18.772 9.87658 23.8686C9.87658 24.0977 9.9003 24.3217 9.91006 24.5494C8.17706 25.6018 7.00635 27.4885 7.00635 29.6655C7.00635 32.9791 9.69271 35.6643 13.0063 35.6655C14.0583 35.6655 15.0323 35.3714 15.8919 34.896C17.9438 36.2213 20.3816 36.9987 23.0063 36.9987C25.6302 36.9987 28.0688 36.2216 30.1196 34.896C30.9793 35.3714 31.9528 35.6655 33.0052 35.6655C36.3199 35.6655 39.0063 32.9791 39.0063 29.6655C39.0063 27.4885 37.8356 25.6002 36.1012 24.5483L36.1009 24.5483ZM23.0059 9.00043C24.8471 9.00043 26.339 10.4912 26.339 12.3336C26.339 14.1748 24.8471 15.6667 23.0059 15.6667C21.1647 15.6667 19.6728 14.1748 19.6728 12.3336C19.6728 10.4909 21.1647 9.00043 23.0059 9.00043ZM13.0059 32.999C11.1647 32.9979 9.67275 31.5071 9.67275 29.6659C9.67387 27.8235 11.1647 26.3327 13.0059 26.331C14.8471 26.3327 16.339 27.8229 16.339 29.6659C16.339 31.5071 14.8471 32.999 13.0059 32.999ZM28.0438 33.0397C26.5499 33.8623 24.8325 34.3327 23.0058 34.3327C21.1777 34.3327 19.4618 33.8623 17.9668 33.0384C18.6219 32.0772 19.0058 30.917 19.0058 29.6659C19.0069 26.3495 16.3195 23.6659 13.0058 23.6647C12.8493 23.6647 12.7039 23.6982 12.5499 23.7099C12.6063 19.9731 14.6202 16.7217 17.6099 14.9157C18.5776 16.9313 20.6203 18.3337 23.0058 18.3337C25.3926 18.3337 27.4341 16.9313 28.4015 14.9157C31.3914 16.7217 33.4043 19.9732 33.4598 23.7099C33.306 23.6982 33.1607 23.6647 33.0041 23.6647C29.6905 23.6659 27.0058 26.3506 27.0047 29.6659C27.0047 30.917 27.3886 32.0772 28.0438 33.0397H28.0438ZM33.0047 32.999C31.1632 32.999 29.6727 31.5071 29.6727 29.6659C29.6727 27.8235 31.1635 26.3327 33.0047 26.3327C34.8468 26.3327 36.339 27.8235 36.339 29.6659C36.339 31.5071 34.847 32.999 33.0047 32.999Z" fill="white" stroke="#D17846"></path></svg>