<svg xmlns="http://www.w3.org/2000/svg" width="33" height="29" viewBox="0 0 33 29" fill="none"><path d="M6.49807 29C10.3205 29 12.6139 26.1 12.1042 22.9478C11.4672 18.787 6.62548 18.5348 5.98842 16.013C3.69498 7.43913 11.4672 2.26957 15.5444 1.76522V0C5.09652 1.13478 0 11.9783 0 18.913C0 23.7044 1.27413 29 6.49807 29ZM23.9537 29C27.7761 29 30.0695 26.1 29.5598 22.9478C28.9228 18.787 24.0811 18.5348 23.444 16.013C21.1506 7.43913 28.9228 2.26957 33 1.76522V0C22.5521 1.13478 17.4556 11.9783 17.4556 18.913C17.4556 23.7044 18.7297 29 23.9537 29Z" fill="#A06C0D"></path></svg>